<svg xmlns="http://www.w3.org/2000/svg" width="190" height="21" viewBox="0 0 190 21">
  <g id="Group_2127" data-name="Group 2127" transform="translate(0)">
    <path id="Path_804" data-name="Path 804" d="M61.759,238.979c0,5.921-4.523,10.254-11.637,10.254H41.34V228.76h8.782C57.236,228.76,61.759,232.971,61.759,238.979Zm-12.111,5.21c3.574,0,5.823-1.858,5.823-5.21s-2.248-5.279-5.823-5.279H47.505v10.506Z" transform="translate(-41.34 -228.495)" fill="#69472e"/>
    <path id="Path_805" data-name="Path 805" d="M78.577,249.46c-6.323,0-11.417-4.342-11.417-10.517s5.12-10.483,11.417-10.483,11.417,4.342,11.417,10.483S84.9,249.46,78.577,249.46Zm0-5.289c3.188,0,5.12-2.058,5.12-5.211s-1.932-5.254-5.12-5.254-5.12,2.032-5.12,5.254S75.345,244.171,78.577,244.171Z" transform="translate(-44.483 -228.46)" fill="#69472e"/>
    <path id="Path_806" data-name="Path 806" d="M107.137,249.46c-6.323,0-11.417-4.342-11.417-10.517s5.12-10.483,11.417-10.483,11.417,4.342,11.417,10.483S113.461,249.46,107.137,249.46Zm0-5.289c3.188,0,5.12-2.058,5.12-5.211s-1.932-5.254-5.12-5.254-5.12,2.032-5.12,5.254S103.914,244.171,107.137,244.171Z" transform="translate(-47.961 -228.46)" fill="#69472e"/>
    <path id="Path_807" data-name="Path 807" d="M134.417,228.76c5.533,0,8.317,2.909,8.317,6.564,0,2.674-1.581,4.992-4.9,5.921l5.024,7.988h-6.921l-4.391-7.554h-.667v7.554H124.73V228.76Zm-.509,4.767h-3.065v4.263h3.065c1.677,0,2.529-.755,2.529-2.145S135.585,233.527,133.908,233.527Z" transform="translate(-51.493 -228.495)" fill="#69472e"/>
    <path id="Path_808" data-name="Path 808" d="M146.71,228.76h6.7l2.591,14,3.513-14h6.771l3.416,13.892,2.635-13.892h6.7l-5.463,20.473h-7.623l-3.065-12.546-3.127,12.546h-7.623Z" transform="translate(-54.169 -228.495)" fill="#69472e"/>
    <path id="Path_809" data-name="Path 809" d="M188.781,245.96l-1.2,3.378H181.07l8.124-20.728h7.14l8.1,20.728h-6.543l-1.2-3.378h-7.9m1.581-4.411h4.769l-2.4-6.7-2.371,6.7" transform="translate(-58.353 -228.478)" fill="#69472e"/>
    <path id="Path_810" data-name="Path 810" d="M202.49,228.76h7.087l3.917,7.9,3.917-7.9h7.026l-7.843,13.97v6.5h-6.227v-6.5Z" transform="translate(-60.961 -228.495)" fill="#69472e"/>
    <path id="Path_811" data-name="Path 811" d="M234,228.94V249.1h20.8V228.94ZM251.152,245.6h-4.189V232.464h4.189Z" transform="translate(-64.797 -228.519)" fill="#69472e"/>
  </g>
</svg>
