<svg id="圖層_1" data-name="圖層 1" xmlns="http://www.w3.org/2000/svg" viewBox="0 0 216.41 24.18"><defs><style>.cls-1{fill:#fff;}</style></defs><title>logow</title><path class="cls-1" d="M64.59,240.53c0,6.82-5.15,11.81-13.25,11.81h-10V228.76h10C59.44,228.76,64.59,233.61,64.59,240.53Zm-13.79,6c4.07,0,6.63-2.14,6.63-6s-2.56-6.08-6.63-6.08H48.36v12.1Z" transform="translate(-41.3 -228.46)"/><path class="cls-1" d="M80.16,252.64c-7.2,0-13-5-13-12.11s5.83-12.07,13-12.07,13,5,13,12.07S87.36,252.64,80.16,252.64Zm0-6.09c3.63,0,5.83-2.37,5.83-6s-2.2-6.05-5.83-6.05-5.83,2.34-5.83,6.05S76.48,246.55,80.16,246.55Z" transform="translate(-41.3 -228.46)"/><path class="cls-1" d="M108.72,252.64c-7.2,0-13-5-13-12.11s5.83-12.07,13-12.07,13,5,13,12.07S115.92,252.64,108.72,252.64Zm0-6.09c3.63,0,5.83-2.37,5.83-6s-2.2-6.05-5.83-6.05-5.83,2.34-5.83,6.05S105.05,246.55,108.72,246.55Z" transform="translate(-41.3 -228.46)"/><path class="cls-1" d="M135.76,228.76c6.3,0,9.47,3.35,9.47,7.56,0,3.08-1.8,5.75-5.58,6.82l5.72,9.2h-7.88l-5-8.7h-.76v8.7h-7V228.76Zm-.58,5.49h-3.49v4.91h3.49c1.91,0,2.88-.87,2.88-2.47S137.09,234.25,135.18,234.25Z" transform="translate(-41.3 -228.46)"/><path class="cls-1" d="M146.71,228.76h7.63l2.95,16.12,4-16.12H169l3.89,16,3-16h7.63l-6.22,23.58h-8.68l-3.49-14.45-3.56,14.45h-8.68Z" transform="translate(-41.3 -228.46)"/><path class="cls-1" d="M189.85,248.59l-1.37,3.89h-7.41l9.25-23.87h8.13l9.22,23.87h-7.45l-1.37-3.89h-9m1.8-5.08h5.43l-2.73-7.72-2.7,7.72" transform="translate(-41.3 -228.46)"/><path class="cls-1" d="M202.49,228.76h8.07l4.46,9.1,4.46-9.1h8l-8.93,16.09v7.49h-7.09v-7.49Z" transform="translate(-41.3 -228.46)"/><path class="cls-1" d="M234,228.94v23.22h23.68V228.94Zm19.53,19.19h-4.77V233h4.77Z" transform="translate(-41.3 -228.46)"/></svg>