<svg xmlns="http://www.w3.org/2000/svg" width="216" height="24" viewBox="0 0 216 24">
  <g id="未命名-1" transform="translate(0 0)">
    <path id="Path_796" data-name="Path 796" d="M64.59,240.44c0,6.768-5.15,11.72-13.25,11.72h-10v-23.4h10C59.44,228.76,64.59,233.573,64.59,240.44ZM50.8,246.394c4.07,0,6.63-2.124,6.63-5.954s-2.56-6.034-6.63-6.034H48.36v12.008Z" transform="translate(-41.34 -228.46)" fill="#69472e"/>
    <path id="Path_797" data-name="Path 797" d="M80.16,252.46c-7.2,0-13-4.963-13-12.02s5.83-11.98,13-11.98,13,4.963,13,11.98S87.36,252.46,80.16,252.46Zm0-6.045c3.63,0,5.83-2.352,5.83-5.955s-2.2-6-5.83-6-5.83,2.323-5.83,6S76.48,246.415,80.16,246.415Z" transform="translate(-41.34 -228.46)" fill="#69472e"/>
    <path id="Path_798" data-name="Path 798" d="M108.72,252.46c-7.2,0-13-4.963-13-12.02s5.83-11.98,13-11.98,13,4.963,13,11.98S115.92,252.46,108.72,252.46Zm0-6.045c3.63,0,5.83-2.352,5.83-5.955s-2.2-6-5.83-6-5.83,2.323-5.83,6S105.05,246.415,108.72,246.415Z" transform="translate(-41.437 -228.46)" fill="#69472e"/>
    <path id="Path_799" data-name="Path 799" d="M135.76,228.76c6.3,0,9.47,3.324,9.47,7.5,0,3.056-1.8,5.706-5.58,6.768l5.72,9.13h-7.88l-5-8.634h-.76v8.634h-7v-23.4Zm-.58,5.448h-3.49v4.873h3.49c1.91,0,2.88-.863,2.88-2.451S137.09,234.208,135.18,234.208Z" transform="translate(-41.485 -228.46)" fill="#69472e"/>
    <path id="Path_800" data-name="Path 800" d="M146.71,228.76h7.63l2.95,16,4-16H169l3.89,15.878,3-15.878h7.63l-6.22,23.4h-8.68l-3.49-14.34-3.56,14.34h-8.68Z" transform="translate(-41.54 -228.46)" fill="#69472e"/>
    <path id="Path_801" data-name="Path 801" d="M189.85,248.439l-1.37,3.861h-7.41l9.25-23.69h8.13l9.22,23.69h-7.45l-1.37-3.861h-9m1.8-5.042h5.43l-2.73-7.662-2.7,7.662" transform="translate(-41.59 -228.46)" fill="#69472e"/>
    <path id="Path_802" data-name="Path 802" d="M202.49,228.76h8.07l4.46,9.031,4.46-9.031h8l-8.93,15.967v7.433h-7.09v-7.433Z" transform="translate(-41.68 -228.46)" fill="#69472e"/>
    <path id="Path_803" data-name="Path 803" d="M234,228.94v23.04h23.68V228.94Zm19.53,19.041h-4.77V232.969h4.77Z" transform="translate(-41.68 -228.46)" fill="#69472e"/>
  </g>
</svg>
