<svg xmlns="http://www.w3.org/2000/svg" width="997" height="819.045" viewBox="0 0 997 819.045"><defs><style>.a,.c,.d,.e,.f,.j,.k,.l,.q,.r,.s,.t,.v,.w{fill:none;}.a,.b,.g,.i,.j,.k{opacity:0.7;}.c,.d,.e,.f{stroke:#fff;stroke-width:2.09px;}.c,.d,.e,.f,.j,.k,.p,.s,.t,.v,.w{stroke-miterlimit:10;}.d{stroke-dasharray:8.34 8.34;}.e{stroke-dasharray:8.28 8.28;}.f{stroke-dasharray:8.46 8.46;}.g,.h,.p,.u{fill:#fff;}.i,.n{fill:#d7c7b6;}.j,.k{stroke:#d7c7b6;}.j{stroke-width:7.14px;}.k{stroke-width:6.17px;}.m{fill:#9c8677;}.o{fill:#1f1512;}.p,.q,.r,.t,.u,.v,.w{stroke:#1f1512;}.p,.q,.u,.v{stroke-width:3.35px;}.q,.r,.u{stroke-linecap:round;stroke-linejoin:round;}.r,.s,.w{stroke-width:2.51px;}.s{stroke:#231815;}.t{stroke-width:2.04px;}</style></defs><g transform="translate(0 0.005)"><path class="a" d="M733.81,393.77h81.371v81.262H733.81Z" transform="translate(137.253 65.14)"/><g class="b" transform="translate(837.666 334.12)"><path class="c" d="M792.73,289.29c.483,1.62.967,3.227,1.438,4.835" transform="translate(-688.115 -289.29)"/><path class="d" d="M813.719,301.33A462.173,462.173,0,0,1,829.166,420.2c0,121.186-41.181,226.478-117.246,308.659" transform="translate(-704.982 -286.777)"/><path class="c" d="M709.673,658.08c-1.209,1.209-2.321,2.417-3.493,3.626" transform="translate(-706.18 -212.315)"/></g><g class="b" transform="translate(138.399 1.04)"><path class="c" d="M127.5,159.854c1.064-1.305,2.127-2.611,3.2-3.9" transform="translate(-127.5 12.002)"/><path class="e" d="M135.5,177.325A462.333,462.333,0,0,1,486.119,17c168.79,0,316.493,90.171,397.432,224.919" transform="translate(-125.83 -17)"/><path class="c" d="M756.65,206.63c.846,1.45,1.692,2.913,2.526,4.376" transform="translate(3.622 22.58)"/></g><g class="b" transform="translate(35.5 234.268)"><path class="c" d="M146.353,661.716c-1.209-1.209-2.333-2.417-3.493-3.626" transform="translate(-21.395 -112.461)"/><path class="f" d="M156.872,743.275C82.693,661.638,42.37,558.039,42.37,438.423A459.954,459.954,0,0,1,100.473,214" transform="translate(-42.37 -205.152)"/><path class="c" d="M92.52,211.056c.834-1.463,1.68-2.925,2.526-4.376" transform="translate(-31.902 -206.68)"/></g><path class="a" d="M73.16,465.19h83.861V526.7H73.16Z" transform="translate(-0.443 80.436)"/><path class="g" d="M13,433.884H84.411V428.07H13Zm0-14.5H84.411V413.5H13ZM13,399v5.826H84.411V399Z" transform="translate(-13 66.117)"/><path class="a" d="M82.93,270.6h60.654v66.069H82.93Z" transform="translate(1.596 38.594)"/><path class="g" d="M131.835,296.33c-1.716-9.488-9.38-16.62-18.578-16.62a18.832,18.832,0,0,0-16.813,11.12c-7.6.882-13.514,7.9-13.514,16.4,0,9.114,6.793,16.523,15.157,16.523h32.865c6.974,0,12.631-6.164,12.631-13.767C143.584,302.724,138.41,296.825,131.835,296.33Zm-.882,21.914H98.087c-5.584,0-10.1-4.919-10.1-11.011s4.521-11.012,10.1-11.012h1.849c1.668-6.358,7-11.011,13.368-11.011,7.687,0,13.9,6.781,13.9,15.145v1.378H131a8.292,8.292,0,0,1,0,16.511Z" transform="translate(1.596 40.505)"/><path class="g" d="M553.03,70.232a20.669,20.669,0,0,0-38.607-5.5,16.511,16.511,0,0,0,1.8,32.926h35.815a13.731,13.731,0,0,0,.967-27.426Zm-.991,21.914H516.224a11.011,11.011,0,0,1,0-22.023h1.97a15.157,15.157,0,0,1,29.746,4.134v1.378h4.1a8.256,8.256,0,0,1,0,16.511Z" transform="translate(88.461 -8.32)"/><path class="g" d="M216.775,131.4a20.971,20.971,0,0,0-39.163-5.584,16.753,16.753,0,0,0,1.825,33.409H215.8a13.924,13.924,0,0,0,.979-27.8Zm-.979,22.228H179.438a11.169,11.169,0,0,1,0-22.337h1.982a15.387,15.387,0,0,1,30.218,4.194v1.366h4.194a8.376,8.376,0,1,1,0,16.753Z" transform="translate(18.199 4.398)"/><path class="a" d="M755.08,462.78h79.909v79.776H755.08Z" transform="translate(141.693 79.988)"/><path class="g" d="M796.384,413.38l-29.964,13.3V446.62c0,18.457,12.788,35.706,29.964,39.888,17.176-4.194,29.964-21.443,29.964-39.888V426.676Zm-6.66,53.184-13.3-13.3,4.7-4.69,8.618,8.57,21.938-21.9,4.7,4.714Z" transform="translate(144.06 69.332)"/><path class="a" d="M717.64,153.22H863.122V298.484H717.64Z" transform="translate(133.878 13.446)"/><path class="g" d="M779.378,215.59a45.581,45.581,0,1,0,32.3,13.308A45.569,45.569,0,0,0,779.378,215.59Zm31.632,27.341H797.545a71.805,71.805,0,0,0-6.3-16.221,36.722,36.722,0,0,1,19.763,16.221Zm-31.584-18.046a64.264,64.264,0,0,1,8.715,18.046h-17.43a63.939,63.939,0,0,1,8.715-18.046ZM744.1,270.273a35.656,35.656,0,0,1,0-18.228h15.435a65.149,65.149,0,0,0,0,18.228Zm3.747,9.114h13.465a71.029,71.029,0,0,0,6.3,16.221A36.371,36.371,0,0,1,747.842,279.386Zm13.465-36.455H747.842A36.48,36.48,0,0,1,767.6,226.71a71.239,71.239,0,0,0-6.3,16.221Zm18.131,54.5a63.778,63.778,0,0,1-8.715-18.046h17.43a64.061,64.061,0,0,1-8.727,18.046Zm10.673-27.16h-21.37a57.631,57.631,0,0,1,0-18.228H790.1a56.7,56.7,0,0,1,0,18.228Zm1.209,25.383a71.6,71.6,0,0,0,6.3-16.221H811.01a36.661,36.661,0,0,1-19.763,16.173Zm8.074-25.383a65.156,65.156,0,0,0,0-18.228h15.423a35.655,35.655,0,0,1,0,18.228Z" transform="translate(137.278 26.804)"/><path class="a" d="M571.82,147.49H680.532V256.033H571.82Z" transform="translate(103.489 12.161)"/><path class="g" d="M615.681,158.67A45.931,45.931,0,1,0,661.613,204.6,45.931,45.931,0,0,0,615.681,158.67Zm0,13.755a13.767,13.767,0,1,1-13.78,13.767A13.767,13.767,0,0,1,615.681,172.425Zm0,65.15A33.083,33.083,0,0,1,588.11,222.8c.133-9.126,18.385-14.13,27.571-14.13s27.438,5,27.571,14.13a33.058,33.058,0,0,1-27.571,14.831Z" transform="translate(103.061 14.548)"/><path class="g" d="M329.294,178.38H231.738c-5.959,0-10.879,4.4-10.879,9.779v58.659c0,5.367,4.835,9.766,10.879,9.766h39.078l9.67,10.637,9.67-10.637h39.078c5.959,0,10.879-4.4,10.879-9.766V188.159C340.137,182.756,335.253,178.38,329.294,178.38Zm-86.714,63.53,18.965-21.987,13.55,14.71,18.977-22.047,24.38,29.324Z" transform="translate(30.329 18.788)"/><path class="g" d="M467.829,93.39H351.792a9.476,9.476,0,0,0-9.452,9.44V161.9a9.476,9.476,0,0,0,9.452,9.44h40.661L405.447,185.6l12.994-14.263h49.388a9.464,9.464,0,0,0,9.44-9.44V102.83A9.464,9.464,0,0,0,467.829,93.39Z" transform="translate(55.65 -0.016)"/><path class="g" d="M112.974,153A33.76,33.76,0,0,0,79.13,186.76c0,25.311,33.844,62.684,33.844,62.684s33.844-37.374,33.844-62.684A33.76,33.76,0,0,0,112.974,153Zm0,45.811a12.057,12.057,0,1,0,0-.06Z" transform="translate(0.803 13.333)"/><path class="a" d="M461.22,198.17h90.268v90.122H461.22Z" transform="translate(80.437 23.051)"/><path class="g" d="M535.132,206.51h-60.17a7.506,7.506,0,0,0-7.482,7.506v45.061A7.542,7.542,0,0,0,475,266.583h60.17a7.543,7.543,0,0,0,7.518-7.506V214.016a7.53,7.53,0,0,0-7.555-7.506Zm0,52.567h-60.17V221.522l30.085,18.771,30.085-18.771Zm-30.085-26.29-30.085-18.771h60.17Z" transform="translate(81.744 24.797)"/><g class="b" transform="translate(825.869 266.902)"><path class="h" d="M707.153,235.86c0,1.4,3.288,7.409,3.783,6.914-.5.5,5.536,3.8,6.938,3.8-1.4,0-7.434,3.288-6.938,3.783-.5-.5-3.783,5.524-3.783,6.926,0-1.4-3.3-7.422-3.8-6.926.5-.5-5.536-3.783-6.938-3.783,1.4,0,7.434-3.3,6.938-3.8C703.854,243.282,707.153,237.238,707.153,235.86Z" transform="translate(-696.42 -235.86)"/></g><g class="b" transform="translate(446.654 285.137)"><path class="h" d="M393.962,250.87c0,1.475,3.481,7.845,4.013,7.325-.532.52,5.85,4.013,7.337,4.013-1.487,0-7.869,3.481-7.337,4-.532-.52-4.013,5.85-4.013,7.337,0-1.487-3.493-7.857-4.013-7.337.52-.52-5.862-4-7.349-4,1.487,0,7.869-3.493,7.349-4.013C390.517,258.715,393.962,252.345,393.962,250.87Z" transform="translate(-382.6 -250.87)"/></g><g class="b" transform="translate(277.237 78.193)"><path class="h" d="M258.389,80.83c0,2.091,4.919,11.048,5.657,10.31-.737.737,8.243,5.645,10.335,5.645-2.091,0-11.072,4.907-10.335,5.645-.737-.737-5.657,8.231-5.657,10.322,0-2.091-4.907-11.06-5.645-10.322.737-.737-8.243-5.645-10.335-5.645,2.091,0,11.072-4.907,10.335-5.645C253.482,91.914,258.389,82.921,258.389,80.83Z" transform="translate(-242.41 -80.83)"/></g><g class="b" transform="translate(434.727 17.225)"><path class="h" d="M381.022,30.39c0,1.088,2.55,5.741,2.925,5.355-.375.387,4.279,2.937,5.367,2.937-1.088,0-5.741,2.538-5.367,2.925-.375-.387-2.925,4.267-2.925,5.355,0-1.088-2.55-5.741-2.937-5.355.387-.387-4.279-2.925-5.355-2.925,1.076,0,5.741-2.55,5.355-2.937C378.471,36.131,381.022,31.478,381.022,30.39Z" transform="translate(-372.73 -30.39)"/></g><g class="b" transform="translate(171.7 280.659)"><path class="h" d="M171.071,247.17c0,2.091,4.907,11.06,5.657,10.322-.749.737,8.231,5.645,10.322,5.645-2.091,0-11.072,4.907-10.322,5.645-.749-.737-5.657,8.219-5.657,10.31,0-2.091-4.907-11.048-5.657-10.31.749-.737-8.243-5.645-10.335-5.645,2.091,0,11.084-4.907,10.335-5.645C166.164,258.23,171.071,249.261,171.071,247.17Z" transform="translate(-155.08 -247.17)"/></g><g class="b" transform="translate(626.015 116.376)"><path class="h" d="M547.011,112.42c0,2.079,4.907,11.048,5.645,10.31-.737.737,8.244,5.645,10.335,5.645-2.091,0-11.072,4.907-10.335,5.645-.737-.737-5.645,8.231-5.645,10.31,0-2.079-4.919-11.048-5.657-10.31.737-.737-8.243-5.645-10.335-5.645,2.091,0,11.072-4.907,10.335-5.645C542.092,123.468,547.011,114.5,547.011,112.42Z" transform="translate(-531.02 -112.42)"/></g><g class="b" transform="translate(891.624 391.112)"><path class="h" d="M766.811,338.09c0,2.091,4.908,11.06,5.645,10.323-.737.737,8.244,5.633,10.335,5.633-2.091,0-11.072,4.907-10.335,5.645-.737-.737-5.645,8.231-5.645,10.323,0-2.091-4.919-11.06-5.657-10.323.737-.737-8.244-5.645-10.334-5.645,2.091,0,11.072-4.9,10.334-5.633C761.916,349.15,766.811,340.181,766.811,338.09Z" transform="translate(-750.82 -338.09)"/></g><ellipse class="g" cx="7.373" cy="7.361" rx="7.373" ry="7.361" transform="translate(124.607 451.174)"/><ellipse class="g" cx="7.373" cy="7.361" rx="7.373" ry="7.361" transform="translate(804.741 175.909)"/><ellipse class="g" cx="7.373" cy="7.361" rx="7.373" ry="7.361" transform="translate(555.309 23.087)"/><ellipse class="i" cx="11.616" cy="11.604" rx="11.616" ry="11.604" transform="translate(404.273 107.444)"/><line class="j" x2="70.916" transform="translate(442.54 116.086)"/><line class="k" x2="61.294" transform="translate(445.647 134.556)"/><line class="k" x2="61.294" transform="translate(445.647 149.846)"/><path class="a" d="M667.25,58.85h94.087v69.84H667.25Z" transform="translate(123.361 -7.225)"/><path class="g" d="M637.3,119.336h71.593v-5.9H637.3Zm0-14.758h71.593v-5.9H637.3Zm0-20.657v5.9h71.593v-5.9Z" transform="translate(117.146 -1.992)"/><path class="l" d="M617.06,258.26h66.178v66.069H617.06Z" transform="translate(112.927 35.939)"/><path class="m" d="M378.873,599.929a5.245,5.245,0,0,0-.073-2.067c-.713-3.215-1.5-6.406-2.309-9.67a109.9,109.9,0,0,0-6.044-21.286c-.254-.761-.5-1.535-.749-2.3a141.829,141.829,0,0,0-9.96-27.958,132.352,132.352,0,0,0-20.923-43.139c-1.475-2.1-2.986-4.182-4.581-6.225a5.212,5.212,0,0,0-1.209-1.1,4.086,4.086,0,0,0-4.231-1.342,85.392,85.392,0,0,0-11.833-10.165c-.556-.592-1.1-1.209-1.668-1.789a4.472,4.472,0,0,0-4.436-1.4c-1.982-1.8-3.989-3.626-6.044-5.282a5.5,5.5,0,0,0-8.461,2.006,3.448,3.448,0,0,0-.762.689l-3.058,3.965a33.422,33.422,0,0,0-8.461,4.98l-2.055-1.438c-2.127-2.418-4.218-4.835-6.249-7.41a4.025,4.025,0,0,0-4.049-1.644,4.835,4.835,0,0,0-2.683-.762,29.673,29.673,0,0,0-7.252,6.986c-.326,1.209-1.8,2.164-2.248,3.421a6.721,6.721,0,0,0,0,4.194l-4.5,6.563-18.651-9.767a4.956,4.956,0,0,0-3.445-.5l-4.472-2.853a4.605,4.605,0,0,0-3.288-.774c-1.305-.858-2.623-1.728-3.916-2.611l-2.176-1.7c-.774-.8-1.547-1.6-2.309-2.417a5.908,5.908,0,0,0-.713-.653q-3.505-5.089-6.612-10.492a4.835,4.835,0,0,0-1.789-1.861q-1.62-3.118-3.082-6.322c-1.487-3.239-4.835-3.155-7.011-1.45a4.714,4.714,0,0,0-3.094,1.414l-.931.943a5.476,5.476,0,0,0-4.484,3.227,4.69,4.69,0,0,0-4.678.085,75.692,75.692,0,0,0-19.195,15.037,5.065,5.065,0,0,0-1.209,2.224,61.659,61.659,0,0,0-7.941,6.044,41.278,41.278,0,0,0-3.409,2.744,53.717,53.717,0,0,0-11.3,11.386,4.085,4.085,0,0,0-.786,3.783,5.114,5.114,0,0,0-.254,3.131,110.658,110.658,0,0,0-6.273,28.248,102.98,102.98,0,0,0-1.958,14.057c-.181,1.209-.351,2.526-.532,3.783a5.427,5.427,0,0,0-.242.617,123.432,123.432,0,0,0-4.835,36.5,76.513,76.513,0,0,0-.35,15.254,43.439,43.439,0,0,0-.665,9.38h0a10.1,10.1,0,0,1-.169,1.354h0a138.22,138.22,0,0,0-.737,25.274,4.058,4.058,0,0,0-.169.544,51.3,51.3,0,0,0-.508,18.409l-.725.568c-4.146,3.251.4,9.67,4.919,8.461,1.91-.52,3.807-.979,5.717-1.39a4.992,4.992,0,0,0,4.134,2.248,19.532,19.532,0,0,0,5.959-.617,313.58,313.58,0,0,1,43.8-1.076,4.835,4.835,0,0,0,4.605-3.324c.786.508,1.571.979,2.417,1.451l.919.641c3.251,8.292,12.293,12.45,21.032,12.764a71.321,71.321,0,0,0,13.646-1.281c1.148-.145,2.3-.3,3.433-.483a4.835,4.835,0,0,0,2.9.87c2.792,0,5.56-.133,8.3-.363.762.06,1.523.121,2.284.157a12.087,12.087,0,0,0,5.947-1.209c2.321-.387,4.617-.882,6.89-1.438a65.539,65.539,0,0,0,27.91-3.626,4.932,4.932,0,0,0,5.633.628,26.836,26.836,0,0,1,11.978-3.046,5.294,5.294,0,0,0,4.388-2.683,16.651,16.651,0,0,0,4.835-2.127c1.728-1.112,3.155-3.626,2.333-5.717q-2.285-5.862-4.23-11.833A63.475,63.475,0,0,0,313,622.46l16.414-4.569a1.2,1.2,0,0,0,.326-.121,40.9,40.9,0,0,0,10.528-2.526,159.311,159.311,0,0,0,17.841-2.865,4.3,4.3,0,0,0,2.84-1.934,13.2,13.2,0,0,0,6.165-2.309c2.575,1.825,6.817,1.136,7.857-2.067l.338-.218.181-.169a2.4,2.4,0,0,0,.387-.121,5.065,5.065,0,0,0,3-5.633ZM186.892,563.74c0-.35.085-.689.109-1.039.23,1.124.483,2.248.749,3.36C187.472,565.287,187.182,564.514,186.892,563.74Zm79.449,4.219h.411c.145.447.278.907.411,1.354Zm11.93,12.849c.06-.387.109-.786.145-1.209l.943,2.417Zm22.071,34.582a4.834,4.834,0,0,0-1.608,0,4.724,4.724,0,0,0-.447-.532,4.278,4.278,0,0,0,.556-.5,4.832,4.832,0,0,0,1.741.471A3.74,3.74,0,0,1,300.342,615.389Z" transform="translate(9.647 77.371)"/><path class="h" d="M426.017,597.5a20.542,20.542,0,0,0-2.2-1.62,3.134,3.134,0,0,0-.351-.568,57.836,57.836,0,0,0-18.626-16.427,4.944,4.944,0,0,0-3.131-.616c-2.152-2.284-6.14-1.583-7.978,1.209a33.712,33.712,0,0,0-8.28,2.417,5.812,5.812,0,0,0-.544.314,44.223,44.223,0,0,0-9.513,2.417c-1.209.145-2.321.3-3.493.411l-.471.073a66.581,66.581,0,0,0-6.128-3.336c-.483-.278-.979-.532-1.475-.774a18.554,18.554,0,0,0-12.692-3.094,27.14,27.14,0,0,0-3.892.326,4.414,4.414,0,0,0-2.49,1.209,52.254,52.254,0,0,0-6.66,1.523c-6.515,1.922-13.127,3.94-19.509,6.3a10.531,10.531,0,0,0-3.445,2.055,94.976,94.976,0,0,0-10,2.417,118.767,118.767,0,0,0-18.808,5.427h0a11.8,11.8,0,0,0-1.209.5c-3.034,1.4-3.01,5.016-1.39,7.361a4.981,4.981,0,0,0-.411,2.188,28.453,28.453,0,0,0,3.687,13.332,4.98,4.98,0,0,0,4.376,2.5,120.4,120.4,0,0,0,15.858-2.176,5.441,5.441,0,0,0,1.716,0c10.117-1.511,20.367-.218,30.218,2.417,3.155.87,6.285,2.043,9.416,3.215a28.187,28.187,0,0,0,12.9,6.152l1.209.411a17.8,17.8,0,0,0,14.867,2.139,9.67,9.67,0,0,0,10.975-2.2v-.061h.157a1.667,1.667,0,0,0,.205-.109A11.737,11.737,0,0,0,398.1,630.2a5.8,5.8,0,0,0,1.765-3.179,16.4,16.4,0,0,0,4.907.846,4.439,4.439,0,0,0,1.209-.145,4.559,4.559,0,0,0,2.417,0,5.052,5.052,0,0,0,3.53-6.225,6.129,6.129,0,0,0-1.293-2.272,67.589,67.589,0,0,1,3.433-6.31,26.353,26.353,0,0,1,7.446-5.04,3.94,3.94,0,0,0,1.777-1.849h.121a4.751,4.751,0,0,0,2.623-1.354C427.83,602.839,428.12,599.261,426.017,597.5Z" transform="translate(43.207 104.861)"/><path class="h" d="M578.667,672.77a94.458,94.458,0,0,1-7.966-12.631,45.081,45.081,0,0,1-2.321-7.168,4.545,4.545,0,0,0-.423-2.3,6.519,6.519,0,0,0-.1-.677,5.089,5.089,0,0,0-6.974-4.484,18.459,18.459,0,0,1-3.554.58,23.287,23.287,0,0,0-4.4,0,52.349,52.349,0,0,0-8.28-.133c-5.258.544-10.359,3.227-15.23,5.161-1.559.1-3.131.205-4.69.326-7.651.592-17.539.205-24.307,4.17a5.573,5.573,0,0,0-1.015.762,6.674,6.674,0,0,0-3.324,1.209,5.149,5.149,0,0,0-1.632,7,20.082,20.082,0,0,1-2.139,2.72,10.638,10.638,0,0,1-5.294,2.768c-5.222,1.305-4.291,8.207-.23,9.67a5.04,5.04,0,0,0,2.973,1.015,1.382,1.382,0,0,0,.109.411c2.309,6.684,7.252,7.446,13.513,8.582,3.119.58,3.735,1.849,6.189,3.626a19.339,19.339,0,0,0,9.67,3.7,24.062,24.062,0,0,0,9.053-1.209c5.536.423,10.419-1.209,15.81-3.046s12.667-2.961,17.152-6.708a11.226,11.226,0,0,0,.955-.87,78.787,78.787,0,0,0,13.042-3.034,5.669,5.669,0,0,0,3.8-5.343,4.327,4.327,0,0,0-.387-4.1Z" transform="translate(85.064 119.106)"/><path class="h" d="M670.5,426.269h0a3.918,3.918,0,0,0-1.656-1.5l-6.612-2.973a6.431,6.431,0,0,0-3.88-.459,5.137,5.137,0,0,0-6.044,2.2.831.831,0,0,1-.157.351,5.577,5.577,0,0,0-.991.689,5.209,5.209,0,0,0-3.324,2.418.247.247,0,0,1-.06.157,5.113,5.113,0,0,0-1.934,1.825,4.738,4.738,0,0,0-.677,2.55l-.23.218a5.427,5.427,0,0,0-.7,6.418,40.374,40.374,0,0,0-4.182,3.626c-2.49,2.1-4.956,4.243-7.349,6.455a104.3,104.3,0,0,0-15.617,5.874,46.462,46.462,0,0,1-7.833-.919,4.629,4.629,0,0,0-4.835-3.989c-1.414-1.934-4.605-3-6.684-1.45l-.073.06a4.5,4.5,0,0,0-3.36-3.409c-2.417-.556-5.766.737-6.225,3.53-.266,1.62-.483,3.251-.665,4.835-.617,1.958-1.209,3.916-1.837,5.862a4.652,4.652,0,0,0,.085,2.925,4.422,4.422,0,0,0-.121,2.417,1.126,1.126,0,0,0-.073.181,33.668,33.668,0,0,1-1.088,3.445s-.085.205-.169.435c-.834,1.463-1.632,2.949-2.417,4.46a5.173,5.173,0,0,0,1.813,6.926,5.1,5.1,0,0,0,6.914-1.813l.411-.8a4.919,4.919,0,0,0,2.309-2.865c.411-1.269.895-2.514,1.4-3.747.846-1.39,1.728-2.78,2.647-4.134a4.194,4.194,0,0,0,.7-2.188l.109-.085h3.8l2.345,1.426a4.763,4.763,0,0,0,3.022,3.989,5.177,5.177,0,0,0,.411.87,18.734,18.734,0,0,0,7.4,6.938,5.187,5.187,0,0,0,1.209.411,5.554,5.554,0,0,0,.471,1.269,33.841,33.841,0,0,0,5.476,7.518,4.617,4.617,0,0,0,1.209.858,1.456,1.456,0,0,1,.06.133l.7,1.414.254.411a4.675,4.675,0,0,0,.423,1.547,4.762,4.762,0,0,0,1.39,2.744,5.209,5.209,0,0,0,3.626,1.487h.5a5.076,5.076,0,0,0,5.065-4.968,88.817,88.817,0,0,1,16.221-22.821,4.69,4.69,0,0,0,.568-6.177l4.448-6.309q4.835-5.911,9.67-11.809a5.356,5.356,0,0,0,1.088-2.2,4.763,4.763,0,0,0,.979-3.372c1.052-1.015,2.091-2.043,3.143-3.046C674.115,431.744,672.991,428.154,670.5,426.269Z" transform="translate(105.435 70.988)"/><path class="m" d="M600,434a4.835,4.835,0,0,0-3.143,1.076,5.816,5.816,0,0,0-1.765.568,5.345,5.345,0,0,0-1.995.121,16.921,16.921,0,0,0-4.653,2.031,4.92,4.92,0,0,0-4.025-1.269,5.269,5.269,0,0,0-1.209.218l-14.5,2.973a4.653,4.653,0,0,0-2.417,1.209c-5.753-.085-11.362.87-14.843,5.258a5.463,5.463,0,0,0-.906,1.656c-3.771,1.765-7.422,3.8-11.036,5.9-7,4.085-13.513,8.377-16.342,16.318a147.237,147.237,0,0,0-19.17,18.107,5.077,5.077,0,0,0-1.209.894,470.2,470.2,0,0,0-37.12,38.909,117.716,117.716,0,0,0-17.1,16.281,2.091,2.091,0,0,0-.133.169,112.358,112.358,0,0,0-10,8.461,5.053,5.053,0,0,0-1.209,1.7,245.361,245.361,0,0,0-35.79,30,4.7,4.7,0,0,0-1.438,3.844c-.266.29-.544.58-.8.882a36.961,36.961,0,0,0-7.325,5.947l-4.243,2.732h-.109a5.235,5.235,0,0,0-3.626,1.487,5.065,5.065,0,0,0,3.626,8.63h1.088a10.5,10.5,0,0,0,3.832,2.8l.145.133A4.629,4.629,0,0,0,394,615.308l13.066,13.3a5.078,5.078,0,0,0,1.571,1.112v.073a5.318,5.318,0,0,0,2.55,4.412,5.2,5.2,0,0,0,6.914-1.825l1.571-2.1a5.423,5.423,0,0,0,2.417-1.209l.338-.29a4.835,4.835,0,0,0,3.626-1.378l.181-.182a5.087,5.087,0,0,0,2.417-1.209c3.409-2.937,6.853-5.814,10.322-8.679l.242-.121c.689-.411,1.366-.834,2.043-1.209a62.213,62.213,0,0,0,7.772-4.545,4.739,4.739,0,0,0,2.5-.834q10.733-7.035,20.73-15.061a4.834,4.834,0,0,0,2.055-.858q4.569-3.191,9.126-6.43c7.7-3.892,14.5-9.38,21.5-14.432l15.713-11.386c2.985-1.849,5.923-3.8,8.824-5.778a80.983,80.983,0,0,0-3.626,19.871c-.1.411-.206.822-.3,1.209-2.973,6.358-3.928,13.151-5.016,19.92q-.906,3.554-1.716,7.107a4.75,4.75,0,0,0-.133.967,125.7,125.7,0,0,0-5.028,14.734c-1.209,4.46-3.143,9.887-2.418,14.71a36.613,36.613,0,0,0-2.538,13.1l-.109.109-.121.109a5.514,5.514,0,0,0-.894,1.209,3.184,3.184,0,0,0-.23.326c-.254.411-.5.834-.737,1.209a5.031,5.031,0,0,0-.858,1.209l-.073.133c-.06.145-.121.29-.169.435s-.1.266-.133.4l-.073.29-.072.3-.073.544v.121a5.272,5.272,0,0,0,0,.616h0a5.018,5.018,0,0,0,.822,2.611.5.5,0,0,0,.085.133h0a4.581,4.581,0,0,0,3.916,1.922,5.165,5.165,0,0,0,1.9-.339,95.019,95.019,0,0,0,12.341-.725,4.992,4.992,0,0,0,4.944.205c3.469-1.668,5.85-4.835,7.929-8.34a41.568,41.568,0,0,0,5.838-8.618,5.55,5.55,0,0,0,.532-1.644c4.521-6.044,9.67-11.725,14.7-17.357a4.835,4.835,0,0,0,1.209-4.545c.786-.822,1.583-1.644,2.417-2.417a5.09,5.09,0,0,0,1.293-2.236,11.566,11.566,0,0,0,2.84-3.336l.58-.665a4.052,4.052,0,0,0,.423-.483l.314-.363a5.113,5.113,0,0,0,.653-5.838c0-.894-.072-1.777-.145-2.671a41.851,41.851,0,0,0-1.209-11.265,295.438,295.438,0,0,0-.882-39.114v-.266c1.209-8.642,2.949-17.212,4.134-25.855q2.562-12.148,6.044-24.114c3.626-5.21,7.482-10.286,11.41-15.254a5.392,5.392,0,0,0,1.209-2.877c.109-.169.205-.338.326-.508a17.081,17.081,0,0,0,3.735-3.844,5.029,5.029,0,0,0,.58-.266,6.481,6.481,0,0,0,1.487-1.33,4.311,4.311,0,0,0,.628-.532,5.282,5.282,0,0,0,1.487-3.626v-.278a5.221,5.221,0,0,0-.52-2.164,5.028,5.028,0,0,0-.616-3.312v-.085a58.014,58.014,0,0,0-4.835-12.329,4.286,4.286,0,0,0,.254-.532,17.237,17.237,0,0,1,5.355-7.059,3.644,3.644,0,0,0,.4-.326h.592a5.2,5.2,0,0,0,3.626-1.487l.073-.06C606.5,443.5,606.31,434,600,434Zm-43.224,52.712.266-.52a.907.907,0,0,1,.073-.157l.907.339a4.532,4.532,0,0,0-1.245.363Z" transform="translate(63.994 75.034)"/><path class="m" d="M768.569,637.892v-.387c1.124-11.108.157-22.627-1.027-33.9q-.145-11.857-1.088-23.715-.218-7.144-.617-14.3c2.091-18.687-2.538-36.987-7.6-55a4.835,4.835,0,0,0-1.934-2.768q-.4-1.922-.834-3.844a4.339,4.339,0,0,0-2.417-3.227,118.587,118.587,0,0,0-18.493-26.991c-3.384-4.376-7.506-8.739-12.087-9.742a13.912,13.912,0,0,0-4.581-4.218c-1.209-.967-2.49-1.9-3.626-2.889v-.157a5.052,5.052,0,0,0-5.052-5.065h-.266c-3.626-1.692-9.2.955-7.252,5.572.338.8.665,1.583,1,2.417a5.317,5.317,0,0,0,.955,1.535.521.521,0,0,0,0,.133,34.291,34.291,0,0,1-5.475,14.722,20.118,20.118,0,0,0-3.493,4.436q-3.808,2.732-7.567,5.572l-2.889,1.632a5.09,5.09,0,0,0-1.837,1.862l-.689.532c-3.505-.762-7.6,1.765-5.935,5.923,1.5,3.759,4.714,8.884,4.545,13.018a14.127,14.127,0,0,1-.894,4.122,5.186,5.186,0,0,0-1.922,1.015,103.947,103.947,0,0,0-12.51,12.764c-.955.822-1.9,1.68-2.828,2.55l-.979.907a4.545,4.545,0,0,0-1.39,4.448q-4.569,4.835-9.09,9.742c-4.714,4.351-9.331,8.8-13.779,13.417a168.865,168.865,0,0,0-26.725,25.673,5.113,5.113,0,0,0-1.136,4.122l-.568.58c-1.922,1.837-3.759,3.759-5.536,5.766l-3.626,3.82a5.112,5.112,0,0,0-1.209,1.982,4.111,4.111,0,0,0-.677,2.3l-.35.3a19.423,19.423,0,0,0-7.567,7.337,4.225,4.225,0,0,0-.4.931,5.077,5.077,0,0,0-1.076,2.78,5.255,5.255,0,0,1-.072,1.064,5.064,5.064,0,0,0-.266,1.97,6.844,6.844,0,0,0,.072,1.209,75.3,75.3,0,0,0,1.62,18.336,12.465,12.465,0,0,0,.206,1.608,54.078,54.078,0,0,0,.834,10.878,4.66,4.66,0,0,0-.109.592,5.728,5.728,0,0,0-.181,1.124c-1.136,2.986.363,7.071,4.509,7.035q29.6-.29,59.227.278a4.667,4.667,0,0,0,3.239-1.088H658.6c-1.874.5-3.723,1.039-5.56,1.668a5.382,5.382,0,0,0-1.487.762,52.223,52.223,0,0,0-10.709,1.136A4.545,4.545,0,0,0,638,662.042a740.9,740.9,0,0,0-75.074,19.013c-3.022-1.414-7.458,0-7.409,4.363.109,9.2,3.892,17.369,8.618,25.081,4.533,7.409,9.114,14.589,18.518,15.459,10.25.955,21.334-.931,31.6-1.559l2.055-.121,2.164.145a32.366,32.366,0,0,0,10.117,2.8,4.061,4.061,0,0,0,4.17-1.97c23.461,1.209,47.068,1.209,69.985-2.889l3.481.435a29.614,29.614,0,0,0,3.832.266c4.376,1.064,8.775.592,12.426-3.191l.109-.133h.073l1.523-.556a5.078,5.078,0,0,0,2.551.641,4.969,4.969,0,0,0,2.6-.677,4.835,4.835,0,0,0,2.043-.931l4.231-3.2a13.829,13.829,0,0,0,4.944-1.729,47.67,47.67,0,0,0,10.516-8.787,4.46,4.46,0,0,0,1.934-1.5l1.559-2.055a27.8,27.8,0,0,0,5.971-7.687,32.888,32.888,0,0,0,3.554-5.923,4.678,4.678,0,0,0,1.789-2.792c.242-1.088.5-2.188.737-3.276a5.137,5.137,0,0,0,.073-1.861v-.979c0-.326.181-.508.266-.774a3.549,3.549,0,0,0,.157-.617,21.681,21.681,0,0,0,1.342-5.294C771.253,660.979,769.113,648.553,768.569,637.892Zm-167.746,7.6a5.933,5.933,0,0,0-.073-.8,1.822,1.822,0,0,0-.1-.713,16.526,16.526,0,0,0,.846,1.5Zm102.149-98.753q-.181.218-.363.471c-.181.254-.35.52-.52.786h0c.314-1.209.617-2.514.907-3.783-.012.834-.024,1.68-.036,2.526Zm6.853-63.361a6.472,6.472,0,0,0-.568-.81,5.605,5.605,0,0,0,.653-.52c-.036.447-.073.882-.1,1.33Z" transform="translate(100.04 78.619)"/><path class="m" d="M596.26,428.115c-1.886-1.813-4.944-2.417-6.926,0l-1.535,1.861a6.686,6.686,0,0,0-1.33.846c-.762.629-1.511,1.209-2.248,1.91a22.388,22.388,0,0,0-5.923,4.641,36.1,36.1,0,0,0-6.539,6.2,38.056,38.056,0,0,0-4.158,4.968l-1.656,1.015a5.04,5.04,0,0,0-1.728,1.692,4.352,4.352,0,0,0-1.064,3.759,5.125,5.125,0,0,0-.326,3.118,56.431,56.431,0,0,0,4.666,14.045c-.085.665-.157,1.317-.218,1.982-1.076,1.8-2.152,3.626-3.251,5.415a81.989,81.989,0,0,0-8.594,11.773,43.224,43.224,0,0,0-11.12,14.5q-.719,2.151-1.535,4.267v1.33a5.664,5.664,0,0,0,.145,1.547,4.374,4.374,0,0,0,.085,1.317,48.35,48.35,0,0,0-4.013,20.029q-.471,4.11-.58,8.292h0c-.121.689-.242,1.366-.35,2.006a39.564,39.564,0,0,0-.556,7.965c-.653,4.025-.145,8.788-.218,12.619a5.091,5.091,0,0,0-.314,1.511c-.145,3.106-.121,6.189,0,9.271a4.1,4.1,0,0,0-.1.689,70.3,70.3,0,0,0,.774,15.931,3.48,3.48,0,0,0-.193.906,5.416,5.416,0,0,0-.846,3.53c-.085.206-.181.4-.266.6a4.11,4.11,0,0,0,.217,3.324,4.6,4.6,0,0,0,.157,1.33,5.2,5.2,0,0,0,2.321,3.022,5.137,5.137,0,0,0,3.9.508,5.029,5.029,0,0,0,3.022-2.321l1.559-3.022a5.718,5.718,0,0,0,.653-2.417,4.836,4.836,0,0,0,1.982-2.031c3.082-5.693,6.443-11.229,10.008-16.632a4.728,4.728,0,0,0,1.475-1.874c.157-.338.29-.689.447-1.027a2.266,2.266,0,0,1,.387-.568,4.835,4.835,0,0,0,.822-2.1c.411-.906.8-1.813,1.209-2.72,4.92-6.757,7.518-14.65,9.476-22.784a6.741,6.741,0,0,0,.483-1.076c.532-1.632,1-3.288,1.451-4.932a5.137,5.137,0,0,0,.761-1.728c2.115-8.824,3.759-17.72,5-26.677a4.979,4.979,0,0,0,.484-3.191q1.813-8.86,3.263-17.78c.556-2.3,1.1-4.593,1.608-6.89a30.214,30.214,0,0,0,2.164-10.419c.169-.846.327-1.692.484-2.55a4.6,4.6,0,0,0,.979-2.248l2.417-14.783c1.668-7.518,3.457-15.024,5.717-22.313A4.472,4.472,0,0,0,596.26,428.115Z" transform="translate(96.048 72.603)"/><path class="m" d="M696.46,448.2a3.783,3.783,0,0,0-.242-1.8,20.37,20.37,0,0,0-.181-2.26A5.2,5.2,0,0,0,693,439.868a15.182,15.182,0,0,0-6.672-5.524l-3.215-3.711c-1.777-2.079-5.318-1.837-7.156,0a4.835,4.835,0,0,0-1.378,4.073,4.194,4.194,0,0,0-.314.447,4.763,4.763,0,0,1-1.475,2.151c-.181.242-.447.641-.725,1.064h-.06c-.073.145-.121.29-.193.423l-.181.266a4.92,4.92,0,0,0-3.01,2.418c-.073.109-.133.217-.193.326a4.835,4.835,0,0,0-.641,2.986,4.951,4.951,0,0,1-.121.834c-.048.278-.29.411-.423.629h0a5.381,5.381,0,0,0-.955,1.475l-.689.919-.411.508-2.49,3.457a3.316,3.316,0,0,0-.242.459q-2.3,2.949-4.835,5.741a5.246,5.246,0,0,0-1.4,3.01,164.964,164.964,0,0,0-9.67,15.1,5.957,5.957,0,0,0-.58,1.45c-.181.314-.363.641-.532.967L629.364,500.57a4.232,4.232,0,0,0-.882,2.417,4.647,4.647,0,0,0-.266.556A66.19,66.19,0,0,0,612.5,528.649a4.9,4.9,0,0,0-.29,1.849h0l-7.047,10.214a4.242,4.242,0,0,0-.7,3.892,6.019,6.019,0,0,0,0,.8l-1.209,2.285a5.037,5.037,0,0,0-.592,1.91c-.266.58-.532,1.136-.786,1.716a5.536,5.536,0,0,0-.423,2.659c-.713,1.426-1.4,2.865-2.079,4.3a63.867,63.867,0,0,0-4.835,12.087l-2.079,4.327-.073.169a5.56,5.56,0,0,0-3.626,3.53L585.2,588.517a.475.475,0,0,1-.1.339,12.727,12.727,0,0,0-1.511,5.6v.073c-.29.459-.58.919-.858,1.39a5.04,5.04,0,0,0-.3,4.424c-.133.29-.254.592-.387.882-.568.955-1.209,1.9-1.692,2.877-2.611,4.617,2.7,8.86,6.491,7.252a5.633,5.633,0,0,0,3.384-3.469,1.14,1.14,0,0,1,.145-.363,4.024,4.024,0,0,0,.592-.882l1.124-2.417a107.27,107.27,0,0,1,18.723-22.059,4.835,4.835,0,0,0,1.451-2.212q6.769-6.733,12.994-13.949c1.209-1.209,2.345-2.417,3.493-3.626l1.729-1.656a4.425,4.425,0,0,0,2.417-2.272h0q13.381-12.752,25.83-26.423a5.1,5.1,0,0,0,1.209-2.285l.242-.145a29.105,29.105,0,0,0,8.546-9.766l.169-.387a5.137,5.137,0,0,0,3.022-5.935,70.014,70.014,0,0,0-4.231-13.912,5.975,5.975,0,0,0-.7-1.209l-.181-.725h0l3.409-2.877c1.487-.979,2.937-2.019,4.364-3.094a4.17,4.17,0,0,0,2.478-.713,121.776,121.776,0,0,0,13.3-10.721,4.4,4.4,0,0,0,1.414-4.545h0a6.309,6.309,0,0,0,1.813-2.575,39.975,39.975,0,0,0,2.635-15.713,5.305,5.305,0,0,0-.435-1.982,47.719,47.719,0,0,0,.411-6.044A5.971,5.971,0,0,0,696.46,448.2ZM681.6,444.353l1.789,2.079c0,.085-.121.181-.181.266a12.1,12.1,0,0,0-.979-1.426,3.628,3.628,0,0,0-.761-.737Z" transform="translate(105.121 73.19)"/><path class="n" d="M600.693,465.445c-1.33-2.067-4.678-3.542-6.914-1.813l-7.059,5.439a5.608,5.608,0,0,0-2.417,5.584,4.653,4.653,0,0,0,1.426,3.747,5.137,5.137,0,0,0,7.156,0c.508-.532,1.052-1.027,1.608-1.511a7.485,7.485,0,0,1,1.293-.882,5.282,5.282,0,0,0,2.3-3.022l.786-.6C600.971,470.739,602.313,467.862,600.693,465.445Z" transform="translate(106.09 79.779)"/><rect class="m" width="25.395" height="6.14" transform="translate(322.797 729.312)"/><path class="o" d="M249.595,297.217s54.671-16.451,84.864,47.624c28.949,61.427,6.31,131.594-53.184,107.661-35.706-1.1-72.523,1.305-96.287-8.159-20.875-8.34-37.978-31.862-10.347-86.436C205.609,296.746,241.75,292.068,249.595,297.217Z" transform="translate(17.695 44.174)"/><path class="p" d="M585.73,448.388s6.636,48.156,77.673-21.056l.121-19.061V390.14H646.6l-56.339,25.867Z" transform="translate(106.394 64.336)"/><path class="q" d="M584.869,662.728s-5.463-48.953-4.363-59.59,22.579-60.291,29.867-73.418S677.4,426.87,677.4,426.87a69.535,69.535,0,0,1,21.491,18.445s-.725,28.369-7.651,35.814-22.579,17.732-22.579,17.732,6.551,11.712,5.1,19.871c0,0-78.253,81.927-93.4,100.324" transform="translate(105.268 73.546)"/><path class="q" d="M599.007,423.83s-11.652,77.225-22.591,120.933S538.172,611.8,538.172,611.8c-8.377-64.848,4.013-104.917,4.013-104.917l24.4-34.243-6.563-15.3c9.489-20.766,36.08-32.092,36.08-32.092" transform="translate(95.876 72.063)"/><path class="p" d="M673.731,382.892a9.839,9.839,0,0,0-9.053-.072c2.176-22.325,3.771-44.723,3.771-44.723L657.885,302.04,587.936,297l-46.62,33.083s-1.825,65.211,10.879,88.527S586.038,449.2,605.74,449.2s50.633-8.739,54.646-31.693c.435-2.5.87-5.4,1.305-8.594,4.907,1.027,10.806-2.127,14.2-8.014C679.956,393.976,678.953,385.9,673.731,382.892Z" transform="translate(97.107 44.506)"/><line class="r" x2="310.484" transform="translate(440.889 736.238)"/><path class="s" d="M377.86,622" transform="translate(63.068 114.274)"/><path class="s" d="M341.64,622" transform="translate(55.516 114.274)"/><line class="s" x2="3.868" transform="translate(397.313 736.238)"/><line class="t" x2="74.856" transform="translate(129.333 736.214)"/><path class="q" d="M380.46,605.085c-5.379-34.219-8.461-38.014-16.632-62.5-11.289-33.844-32.055-69.586-75.4-81.963l-73.95-22.228s-67.4,30.218-76.863,58.647-16.4,117.355-15.6,160.651c0,2.5.073.23.109,2.417" transform="translate(9.74 75.951)"/><path class="p" d="M200.384,370.97,189.82,439.094l36.056,20.029h19.315l5.089-16.39,1.825-34.606Z" transform="translate(39.572 79.65)"/><path class="u" d="M258.533,327.89s-39.888.121-46.487,51.455a10.721,10.721,0,0,0-9.851.109c-5.621,3.251-6.793,11.749-2.623,18.977,3.312,5.741,8.981,8.945,14,8.461,7.978,38.377,28.139,44.892,45.823,48.047,27.6,4.992,50.633-15.653,50.271-71.762S258.533,327.89,258.533,327.89Z" transform="translate(25.371 51.096)"/><path class="q" d="M177.7,509.22s33.844,46.258,31.33,79.05" transform="translate(21.336 89.981)"/><path class="q" d="M208.954,585.095s69.574,8.751,102.741,22.966c0,0-3.626,14.215,4.726,31.693,0,0-13.477,9.476-29.5,10.878s-70.529,11.3-85.166,3.626S144.481,590.872,137.93,510.42" transform="translate(13.04 90.985)"/><path class="q" d="M303.095,511.63s-13.477,8.014-3.276,91.79" transform="translate(46.001 90.556)"/><path class="o" d="M538.881,346.866c-3.106-11.362.387-26.93,5.9-36.963a65.461,65.461,0,0,1,14.239-17.466c15.085-13.3,34.038-20.875,53.812-23.232a110.162,110.162,0,0,1,30.5.592c19.581,3.155,38.764,12,51.6,27.474,14.166,17.079,19.339,40.456,17.478,62.237-2.1,24.815-15.206,44.9-30.4,63.929-2.321,2.913-4.7,5.79-7.059,8.679a4.713,4.713,0,0,1-1.668,1.5c-3.989,1.716-8.183-5.753-9.561-8.316-4.835-8.9,1.209-33.566-6.358-46.27-2.925-4.9-5.6-10.008-8.618-14.831s-7.53-7.941-10.878-12.426c-4.013-5.5-4.485-11.809-5.113-18.373-.169-1.753-2.006-12.45.3-13.381-14.372,5.754-30.073,9.972-45.617,9.67a4.619,4.619,0,0,1-1.91-.326,3,3,0,0,1-1.475-2.683c-.085-3.4,1.934-7.373,3.469-10.286-.943,1.777-11.048,3.9-13.2,4.835a112.986,112.986,0,0,0-13.3,6.394C551.947,332.76,545.759,339.372,538.881,346.866Z" transform="translate(96.369 38.371)"/><path class="q" d="M549.066,601.87l-39.344,53.558H483.13s22.216-96.988,30.967-125.707,20.766-67.882,20.766-67.882" transform="translate(85.007 80.845)"/><path class="q" d="M610.542,434.07l-50.694,7.252c-26.229,8.376-85.239,78.688-85.239,78.688L379.12,604.887s25.939,9.839,33.373,33.143l117.355-79.546" transform="translate(63.304 75.049)"/><path class="q" d="M703.936,448.54s46.306,26.955,56.133,67.024,10.939,130.046,9.839,161.014c-1.451,12.027-17.478,38.981-50.633,45.532s-139.885,4.738-139.885,4.738-22.966-8.739-25.129-44.07c0,0,92.528-25.141,140.973-33.844" transform="translate(99.777 78.069)"/><path class="q" d="M663.28,639.568s1.547-79.7,11.386-103.382S696.52,501.58,696.52,501.58" transform="translate(122.568 89.14)"/><circle class="o" cx="4.376" cy="4.376" r="4.376" transform="translate(263.413 435.598)"/><circle class="o" cx="2.478" cy="2.478" r="2.478" transform="translate(296.876 463.39)"/><circle class="o" cx="4.376" cy="4.376" r="4.376" transform="translate(313.19 437.055)"/><path class="o" d="M272.884,365.207a20.065,20.065,0,0,1,8.05-.3c3.179.544,4.545-4.327,1.342-4.835a26.326,26.326,0,0,0-10.733.314c-3.167.749-1.825,5.633,1.342,4.835Z" transform="translate(40.524 57.589)"/><path class="o" d="M230.154,364.293a29.35,29.35,0,0,1,10.625.351c3.179.677,4.533-4.206,1.354-4.835a36.262,36.262,0,0,0-13.3-.351c-3.215.483-1.849,5.367,1.342,4.835Z" transform="translate(31.615 57.448)"/><path class="o" d="M252.535,410.723c4.835,3.723,13.3,4.086,17.877-.169,1.8-1.668-.894-4.339-2.683-2.683-2.9,2.683-9.476,2.538-12.51.169C253.309,406.565,250.6,409.248,252.535,410.723Z" transform="translate(36.8 67.826)"/><path class="o" d="M282.554,597.581l22.4-6.358c6.9-1.97,14.009-2.683,20.9-4.533,6.394-1.729,11.7-5.911,18.264-7.252,7.252-1.559,18.941-1.946,24.6,3.892,1.136,1.209,2.925-.616,1.789-1.789-8.715-9.005-26.689-6.044-36.612-1.064-8.086,4.061-16.028,4.666-24.622,6.962-9.162,2.417-18.264,5.173-27.378,7.76a1.254,1.254,0,0,0,.665,2.417Z" transform="translate(42.861 104.619)"/><path class="o" d="M386.942,574.494a90.4,90.4,0,0,1-16.511,6.974c-4.908,1.366-10.008,1.656-14.976,2.78a70.408,70.408,0,0,0-11.93,3.844c-3.143,1.318-8.848,3.252-11.06,5.875-3.094,3.626.774,5.633,4.291,6.551,9.984,2.587,19.448,0,28.792-3.626,1.511-.58.858-3.022-.665-2.417-8.183,3.167-16.475,5.766-25.383,4.134-1.97-.363-4.11-.085-4-2.417.1-1.958,2.151-2.417,3.735-3.3A68.042,68.042,0,0,1,350.2,588.3c6.177-1.958,12.522-2.417,18.8-3.844,6.769-1.547,13.03-4.654,19.182-7.772,1.463-.725.181-2.913-1.269-2.176Z" transform="translate(53.363 104.33)"/><path class="o" d="M358.621,593.349c9.126,2.526,15.593,8.933,22.011,15.544,2.345,2.418,4.641,5.149,7.506,6.974,1.97,1.209,9.428,2.418,8.787,5.33-.363,1.583,2.079,2.26,2.417.665a4.436,4.436,0,0,0-1.994-5.27c-1.4-.906-3.2-.846-4.738-1.378-3.9-1.329-6.721-4.508-9.5-7.385-6.914-7.131-13.924-14.178-23.836-16.922a1.254,1.254,0,0,0-.665,2.417Z" transform="translate(58.859 107.775)"/><path class="o" d="M365.208,612.736c4.327.761,5.874,4.17,9.09,6.527,2.768,2.019,6.213,2.78,9.452,3.759,6.237,1.886,9.464,1.209,13.949-3.759,1.088-1.209-.7-3-1.789-1.789-3.566,3.941-6.225,4.279-11.483,3.106a21.589,21.589,0,0,1-9.851-4.436c-2.865-2.575-4.7-5.137-8.691-5.85-1.6-.29-2.285,2.152-.677,2.417Z" transform="translate(60.236 111.826)"/><path class="o" d="M357.025,616.837c7.373,5.343,21.358,17.115,29.831,6.624,1.015-1.209-.774-3.058-1.789-1.789-7.482,9.259-20.222-2.272-26.761-7.011C356.977,613.706,355.72,615.87,357.025,616.837Z" transform="translate(58.607 112.693)"/><path class="o" d="M348.617,619.685c9.972,3.832,16.4,14.5,27.958,8.461,1.45-.749.169-2.937-1.269-2.176-9.96,5.185-17.285-5.367-26.024-8.715-1.511-.592-2.176,1.861-.665,2.417Z" transform="translate(56.791 113.265)"/><path class="o" d="M286.634,618.684c4.46-1.281,8.908-.085,13.441-.5,4.122-.375,8.171-1.354,12.293-1.8a58.685,58.685,0,0,1,24.537,2.079c7.8,2.417,14.843,6.044,22.035,9.912,5.983,3.167,10.878,3.058,17.466,1.571,1.583-.35.919-2.792-.677-2.417-6.044,1.378-10.878,1.209-16.354-1.813-3.276-1.825-6.563-3.626-9.984-5.137a80.908,80.908,0,0,0-20.331-6.7,67.277,67.277,0,0,0-19.267.3c-4.351.592-8.679,1.692-13.09,1.632-3.747,0-7.083-.616-10.733.435a1.254,1.254,0,0,0,.665,2.417Z" transform="translate(43.711 112.466)"/><line class="s" x2="12.873" y2="7.156" transform="translate(769.791 491.661)"/><path class="v" d="M616.442,473.927,587.3,440.24l-20.27,18.844" transform="translate(118.21 94.363)"/><path class="o" d="M238.21,322.756s45.823,13.018,68.643,61.355c26.592,56.387-21.83-67.181-21.83-67.181Z" transform="translate(33.948 48.602)"/><path class="o" d="M391.4,615.963c3.4-7.422,10.057-11.894,16.789-16.064,1.378-.846.109-3.034-1.281-2.176-7.071,4.364-14.118,9.162-17.684,16.922-.677,1.475,1.5,2.756,2.176,1.281Z" transform="translate(65.408 109.166)"/><path class="o" d="M492.411,662.747c-4.581-5.209,15.484-8.255,17.394-8.594,6.044-1.076,12.087-2.164,18.131-3.191a382.922,382.922,0,0,1,38.4-4.835c1.62-.109,1.632-2.635,0-2.526-17.333,1.136-34.449,4.037-51.54,7.059-3.409.6-32.793,4.11-24.175,13.84,1.076,1.209,2.865-.58,1.789-1.789Z" transform="translate(86.239 118.782)"/><path class="o" d="M495.832,658.736c-3.747,2.828-7.639,5.536-11.277,8.461-2.067,1.68-3.9,3.868-3.058,6.708.762,2.526,3.711,5.161,6.044,6.189,4.182,1.849,9.162-.52,13.61.387,1.6.326,2.272-2.115.677-2.418-5.524-1.124-13.115,2.236-16.789-3.215-2.72-4.025,1.535-6.044,4.388-8.171L497.1,660.9c1.281-.967,0-3.167-1.281-2.188Z" transform="translate(84.628 121.886)"/><path class="o" d="M487.933,676.95a9.887,9.887,0,0,0,5.56,7.458,10.964,10.964,0,0,0,4.122.931,74.144,74.144,0,0,1,7.458.87c1.6.242,2.285-2.2.677-2.418a71.8,71.8,0,0,0-7.494-.967c-4.218-.206-7.083-2.248-7.893-6.527-.29-1.6-2.732-.919-2.417.677Z" transform="translate(86.011 125.417)"/><path class="o" d="M500.071,685.364c2.986,2.574,5.294,4.835,9.247,5.572a89.883,89.883,0,0,0,15.919,1.015,1.263,1.263,0,1,0,0-2.526c-3.626,0-7.192-.145-10.782-.447a19.63,19.63,0,0,1-12.595-5.4C500.651,682.524,498.838,684.3,500.071,685.364Z" transform="translate(88.458 127.059)"/><path class="o" d="M521.157,693.674c9.343-2.683,18.893-5.016,28.115-8.111a67.683,67.683,0,0,0,9.271-4.279c5.923-3.022,11.531-4.219,18.131-5.077,1.6-.206,1.608-2.732,0-2.526a65.618,65.618,0,0,0-13.3,2.623c-4.569,1.6-8.461,4.5-12.994,6.225-9.585,3.626-19.992,5.874-29.855,8.7a1.255,1.255,0,1,0,.677,2.417Z" transform="translate(92.613 125.059)"/><line class="w" x2="83.801" transform="translate(314.067 737.253)"/><line class="v" x2="1.571" y2="7.639" transform="translate(349.24 729.312)"/><path class="u" d="M205.9,431.49s46.62,50.319,60.1,17.164l17.853,14.577s-2.913,11.289-12.389,16.39l-17.116-13.477L241.6,488s-37.881-5.1-53.546-45.931Z" transform="translate(23.491 73.171)"/><circle class="o" cx="2.478" cy="2.478" r="2.478" transform="translate(660.545 445.827)"/><circle class="o" cx="4.376" cy="4.376" r="4.376" transform="translate(646.804 419.491)"/><circle class="o" cx="4.376" cy="4.376" r="4.376" transform="translate(692.34 423.888)"/><path class="o" d="M584.739,350.7a90.331,90.331,0,0,1,16.8-1.994l-2.417-3.2-.073.278,1.209-1.511L600,344.4c-2.853,1.583-.3,5.947,2.55,4.376a2.877,2.877,0,0,0,1.487-1.934,2.563,2.563,0,0,0-2.417-3.2,99.589,99.589,0,0,0-18.131,2.176c-3.179.677-1.837,5.56,1.342,4.835Z" transform="translate(105.557 54.153)"/><path class="o" d="M546.563,346.974a20.173,20.173,0,0,1,8.606,1.9c2.937,1.378,5.5-2.986,2.562-4.376a26.3,26.3,0,0,0-11.168-2.587C543.3,341.91,543.3,346.95,546.563,346.974Z" transform="translate(97.728 53.782)"/><path class="o" d="M569.313,402.035a87.767,87.767,0,0,0,28.212-3.832c2.333-.713,1.342-4.376-1-3.626a84.61,84.61,0,0,1-27.208,3.662C566.9,398.24,566.9,401.975,569.313,402.035Z" transform="translate(102.601 65.067)"/><ellipse class="h" cx="15.447" cy="10.927" rx="15.447" ry="10.927" transform="translate(747.083 446.819) rotate(-72.85)"/></g></svg>