<svg xmlns="http://www.w3.org/2000/svg" xmlns:xlink="http://www.w3.org/1999/xlink" viewBox="0 0 485.64 479.34"><defs><style>.cls-1,.cls-11,.cls-13,.cls-14,.cls-8{fill:none;}.cls-2{clip-path:url(#clip-path);}.cls-3{fill:#9d8777;}.cls-10,.cls-4,.cls-9{fill:#fff;}.cls-5{fill:#201613;}.cls-6{fill:#d6c6b6;}.cls-7{fill:#040000;}.cls-11,.cls-13,.cls-7,.cls-9{stroke:#231815;stroke-linecap:round;}.cls-11,.cls-7,.cls-9{stroke-linejoin:round;}.cls-10,.cls-14,.cls-8{stroke:#201613;}.cls-10,.cls-13,.cls-14,.cls-8{stroke-miterlimit:10;}.cls-10,.cls-11,.cls-8,.cls-9{stroke-width:3px;}.cls-12{fill:#231815;}.cls-13,.cls-14{stroke-width:4px;}.cls-15{font-size:61px;fill:#3f2f20;font-family:GenJyuuGothicX-P-Bold, Gen Jyuu Gothic XP;font-weight:700;}</style><clipPath id="clip-path" transform="translate(-40.99 -36.28)"><rect class="cls-1" width="542.47" height="509.48"/></clipPath></defs><title>資產 19</title><g id="圖層_2" data-name="圖層 2"><g id="線搞5"><g class="cls-2"><path class="cls-1" d="M118.46,328.18l-.17.2q1,1,2,2a.29.29,0,0,0,0-.09c-.39-.44-.77-.9-1.17-1.34C118.93,328.68,118.69,328.43,118.46,328.18Z" transform="translate(-40.99 -36.28)"/><path class="cls-1" d="M85.47,334.46c.42-.19.84-.35,1.26-.5,0-.18,0-.35,0-.53C86.28,333.78,85.87,334.11,85.47,334.46Z" transform="translate(-40.99 -36.28)"/><path class="cls-1" d="M55.47,427.26c0-1.31.12-2.62.22-3.92-.11-.25-.22-.5-.32-.76C55.37,424.14,55.4,425.7,55.47,427.26Z" transform="translate(-40.99 -36.28)"/><path class="cls-1" d="M134.08,376.62c.4.61.8,1.22,1.21,1.83.44.35.89.71,1.33,1.08-.85-1.22-1.7-2.44-2.53-3.67C134.09,376.11,134.08,376.37,134.08,376.62Z" transform="translate(-40.99 -36.28)"/><path class="cls-1" d="M156.39,500.12l1.54-.07-1-.38A6.41,6.41,0,0,1,156.39,500.12Z" transform="translate(-40.99 -36.28)"/><path class="cls-1" d="M166.13,417.47l0,.29c.72.78,1.45,1.55,2.17,2.32a1.36,1.36,0,0,0,0-.2C167.55,419.08,166.83,418.28,166.13,417.47Z" transform="translate(-40.99 -36.28)"/><path class="cls-3" d="M352.23,386.79a15,15,0,0,1-4.68-.63,48.89,48.89,0,0,1-14.7-10.31,4.57,4.57,0,0,0-3.84-1.46c-2.3-4.9-10.75-2.23-9.28,3.66.07.29.15.59.23.88A34.36,34.36,0,0,0,315.4,385q-5.88,7.74-11.23,15.85a5,5,0,0,0-.8,2c-2.16,2.35-4.22,4.88-4.57,7.58l-5.35,6.86c-5.64,7.25-13.58,14.84-16.76,23.61q-4.68,5.81-9.36,11.6c-.08-.17-.15-.33-.22-.5-1.14-8.39-4.57-16.72-7-24.66q-4.75-15.78-9.52-31.55a4.75,4.75,0,0,0-2.47-3q-5.49-20.56-12.31-40.74a4.85,4.85,0,0,0-3.33-3.23A89.25,89.25,0,0,0,225,330.78a4.55,4.55,0,0,0-5.5-2.21,42.29,42.29,0,0,0-14.91-13.73c-3.29-1.85-8-4.45-12.39-5.47l-.48-.46a5.06,5.06,0,0,0-7.07,0,5.44,5.44,0,0,0-1.25,2.34c-2.48,2.29-4.35,5.81-6.1,8.14a4.26,4.26,0,0,0-.95,2.91c-1.56-2.23-3-4.54-4.43-6.76a5.66,5.66,0,0,0-.65-.84c-.26-4.56-6.84-7.5-9.13-2.53a66.18,66.18,0,0,1-7,11.83,4.26,4.26,0,0,0-1.05,1.11A104.36,104.36,0,0,1,132.25,312c-6-4.8-11-11.76-19.29-12.18a4.32,4.32,0,0,0-4.71,3.66,5.8,5.8,0,0,0-1.81,2.44C97,312.47,87.88,319.4,79.09,326.77S58.8,341.51,57.27,353.48c-5.2,7.32-9.71,15.75-8.74,24.73-.14.57-.27,1.14-.4,1.71a4.38,4.38,0,0,0-1.24,1.81,4.13,4.13,0,0,0-1.7,3.83c.06.69.09,1.38.13,2.07a4.38,4.38,0,0,0-.09,4.41c-2.48,9.6-2,20-1.85,29.83a150.47,150.47,0,0,0,1.54,20.33A83.54,83.54,0,0,0,46.39,451c0,.58.08,1.16.13,1.74-2.88,6.65-.33,14.77.82,21.61q1.23,7.2,2.44,14.41c.17,1,.32,1.93.47,2.89l.45,17.85A5.05,5.05,0,0,0,57,514.29c9.57-2.92,19.61,1.6,29.35-1.34A4.84,4.84,0,0,0,89.09,511a50.55,50.55,0,0,0,7.15-.59q8.27.58,16.54.8a4.78,4.78,0,0,0,2.56.56l24.24-1c10.92,3,22.13,5.55,33.5,4.63,5.88-.47,11.62-1.5,17.36-2.44l.87.57a4.46,4.46,0,0,0,6.56-1.67c1.12-.14,2.23-.27,3.36-.38l.79.87c2.62,2.92,6.25,1.43,7.73-1.25h.72a4.87,4.87,0,0,0,2.27-.46c2.49,3.64,8.89,3,9.06-2.52.48-15.86,1.62-31.67,3.14-47.44a89.13,89.13,0,0,1,7.39,7.54c7.46,9.85,12.9,21.32,22.91,29,9.06,6.92,20.94,10,31.51,4.64,6.79-3.46,11.41-9.66,15.25-16.21a31.08,31.08,0,0,0,6-6.59c4.92-6.95,9.26-14.38,13.85-21.55a4.34,4.34,0,0,0,.41-4.31c2.69-4,5.27-8.12,7.83-12.23l.48-.68a3.24,3.24,0,0,0,.38-.71c2.52-4.06,5-8.13,7.55-12.14a4.31,4.31,0,0,0,.63-1.95,60.53,60.53,0,0,0,9.26-18.65,4.91,4.91,0,0,0,.19-1.5q2.76-3.93,5.49-7.89a5,5,0,0,0,2-2.54C358.19,392,356.94,386.69,352.23,386.79ZM55.47,427.26c-.07-1.56-.1-3.12-.1-4.68.1.26.21.51.32.76C55.59,424.64,55.51,426,55.47,427.26Zm30-92.8c.4-.35.81-.68,1.22-1,0,.18,0,.35,0,.53C86.31,334.11,85.89,334.27,85.47,334.46Zm34.83-4.1q-1-1-2-2l.17-.2c.23.25.47.5.69.75.4.44.78.9,1.17,1.34A.29.29,0,0,1,120.3,330.36Zm36.09,169.76a6.41,6.41,0,0,0,.58-.45l1,.38Z" transform="translate(-40.99 -36.28)"/><path class="cls-4" d="M428.14,143.81a29,29,0,0,0-1.08-11,13.81,13.81,0,0,0-2.38-4.81c-2.17-3.44-5.57-6.29-9.53-6.14a7.23,7.23,0,0,0-5.69,3.22,11.88,11.88,0,0,0-3.52,8.6,13.05,13.05,0,0,0,.13,1.49,13.92,13.92,0,0,0,.08,2.58,8.79,8.79,0,0,0,0,1.54,14.19,14.19,0,0,0-.46,7,11.09,11.09,0,0,0,.76,2.13,12.41,12.41,0,0,0,1.86,5.13,6.21,6.21,0,0,0,1.94,2.58l0,.12a5.27,5.27,0,0,0,4.82,3.67,6.08,6.08,0,0,0,2.23-.2,6.43,6.43,0,0,0,4.44-1.9,5.39,5.39,0,0,0,5.16-4.39c0-.11.08-.2.11-.32.26-1.06.51-2.12.76-3.18a5.39,5.39,0,0,0,.08-2.28A8.69,8.69,0,0,0,428.14,143.81Z" transform="translate(-40.99 -36.28)"/><path class="cls-5" d="M415.48,92.92c-1.81-5.31-8.49-6.07-12.41-2.67a8.09,8.09,0,0,0-1.21,1.36,9,9,0,0,0-12,2.81,8.52,8.52,0,0,0-.48,8.76,7.88,7.88,0,0,0,4.86,3.5,7.64,7.64,0,0,0,4,1,7.93,7.93,0,0,0,6-2.9,6.67,6.67,0,0,0,5,1.29C414.7,105.38,417,97.48,415.48,92.92Z" transform="translate(-40.99 -36.28)"/><polygon class="cls-6" points="431.2 84.55 355.81 11.22 280.43 84.55 296.64 84.55 296.64 154.13 414.98 154.13 414.98 84.55 431.2 84.55"/><path class="cls-5" d="M162.77,125.9s-22.79-8.65-42.85,19-34.69,51.24-37.07,74.43,7.14,37.74,21.08,44S140.66,271,140.66,271h45.57a29.62,29.62,0,0,0,11.57,6c7.14,1.92,19.38,3,28.23-3.27s29.24-26.66,23.46-81.36S200.86,106.17,162.77,125.9Z" transform="translate(-40.99 -36.28)"/><path class="cls-7" d="M129,275.73s28.52,3.2,52,15.76L178,306.72l-25.27-.53-19-10.35-4.72-3Z" transform="translate(-40.99 -36.28)"/><path class="cls-8" d="M50.3,510c-3.09-34.5-7.81-68.8-7.81-103.1.94-18.62,4.72-37.24,13.22-53.91,4.73-8.82,11.34-16.66,17.95-23.52,16.06-13.72,31.18-26.46,50.07-33.32,22.68,2.94,45.35,2.94,67.08,10.78,9,3.25,17.47,9.52,24.69,15.81,14.66,12.76,20.85,29.59,27.27,47.9.94,4.9,2.83,8.82,3.77,13.72,7.56,22.54,15.12,44.1,22,67" transform="translate(-40.99 -36.28)"/><path class="cls-8" d="M66.69,363.3c10.75,5.41,21.14,12.27,26.81,23.05a90.81,90.81,0,0,1,6.62,26.46c1.88,32.34,2.83,64.68,3.2,97" transform="translate(-40.99 -36.28)"/><path class="cls-8" d="M265.56,455.89l59.71-88.15s7.76,15.93,34.86,21.52c0,0-54.86,103.69-71.87,111.62s-28.9,4.65-42.11-12-23.72-33-23.72-33" transform="translate(-40.99 -36.28)"/><path class="cls-8" d="M221,509.48c.07-34.32,2.7-68.55,3.7-102.85.23-7.89.86-17.14,5.44-23.76" transform="translate(-40.99 -36.28)"/><polyline class="cls-9" points="95.91 217.79 94.47 232.24 92.59 251.21 110.48 267.53 119.5 267.81 133.75 267.53 137 263.82 138.48 238.26 95.91 211.1"/><path class="cls-10" d="M128.76,277.3l-13.93,20.9,36.9,29.61,14.76-21.16,11.28,19,13.47-21.06-10.19-12C160.62,313.35,130.12,277,130.12,277" transform="translate(-40.99 -36.28)"/><path class="cls-11" d="M346.23,299.22c.6,12.06-8.85,22.46-11.48,33.88-2.89,12.53-2.08,25.63-5,38.16" transform="translate(-40.99 -36.28)"/><path class="cls-11" d="M346,299.16c2.85-.69,5.83,1.21,7.33,3.82s1.83,5.74,1.93,8.78a74,74,0,0,1-5,29.24" transform="translate(-40.99 -36.28)"/><path class="cls-11" d="M354.13,325.87c7.58-13.27,15.78-26.31,26.3-37.21,1.59-1.65,3.39-3.32,5.62-3.62s4.81,1.56,4.46,3.86" transform="translate(-40.99 -36.28)"/><path class="cls-11" d="M369.43,322.67A233.43,233.43,0,0,1,391.28,291" transform="translate(-40.99 -36.28)"/><path class="cls-11" d="M408.17,305.07q-9.84,16.51-20.42,32.54" transform="translate(-40.99 -36.28)"/><path class="cls-11" d="M380.49,325.18C387.31,313.82,394.86,303,404,294" transform="translate(-40.99 -36.28)"/><path class="cls-11" d="M398.37,320.72a19.53,19.53,0,0,1,6.42-6.76c1.11-.69,2.46-1.29,3.66-.8,2.4,1,1.73,4.66.61,7.07a300.73,300.73,0,0,1-18.93,34.47c-4.54,7.11-9.56,14.21-16.58,18.64-3.12,2-6.57,3.36-9.55,5.56s-5.53,5.47-5.66,9.26" transform="translate(-40.99 -36.28)"/><path class="cls-11" d="M391,291.5c1.63-2.08,3.35-4.23,5.72-5.29s5.58-.62,6.9,1.68c1.47,2.55,0,5.81-1.71,8.2" transform="translate(-40.99 -36.28)"/><path class="cls-11" d="M404.4,294.48a9.81,9.81,0,0,1,3.83-1,3.44,3.44,0,0,1,3.2,2,5.26,5.26,0,0,1-.52,3.74,71.61,71.61,0,0,1-3.22,6.73" transform="translate(-40.99 -36.28)"/><path class="cls-12" d="M325.32,367.94l2.72.68c1.56.39,2.23-2,.67-2.41l-2.73-.68a1.25,1.25,0,0,0-.66,2.41Z" transform="translate(-40.99 -36.28)"/><path class="cls-12" d="M326.08,368.38l1.73,1a1.25,1.25,0,0,0,1.26-2.16l-1.73-1a1.25,1.25,0,0,0-1.26,2.16Z" transform="translate(-40.99 -36.28)"/><path class="cls-12" d="M326.85,368.72l.34,1.06a1.29,1.29,0,0,0,1.54.88,1.27,1.27,0,0,0,.87-1.54l-.34-1.06a1.28,1.28,0,0,0-1.54-.87,1.25,1.25,0,0,0-.87,1.53Z" transform="translate(-40.99 -36.28)"/><path class="cls-12" d="M357.94,387l1,1.41a1.29,1.29,0,0,0,1.71.45,1.26,1.26,0,0,0,.45-1.71l-1-1.41a1.25,1.25,0,1,0-2.16,1.26Z" transform="translate(-40.99 -36.28)"/><path class="cls-12" d="M358.26,387.37l.68,1.41a1.25,1.25,0,1,0,2.16-1.26l-.68-1.41a1.26,1.26,0,0,0-1.71-.45,1.28,1.28,0,0,0-.45,1.71Z" transform="translate(-40.99 -36.28)"/><path class="cls-10" d="M179.09,156s50.34,2.82,42.17,66.33-39.45,58.57-50.67,56.8-38.09-7.76-40.13-44.45c0,0-3.4,3.17-9.52,1.23s-9-7.76-9.19-15.87,4.6-15,10.72-14.82a8.83,8.83,0,0,1,8,5.64s1.19,1.06,3.06-1.05,5.1-21.35,12.92-34.76S165,155.83,179.09,156Z" transform="translate(-40.99 -36.28)"/><ellipse class="cls-12" cx="114.25" cy="177.86" rx="4.08" ry="4.23"/><ellipse class="cls-12" cx="141.34" cy="202.91" rx="2.34" ry="2.43"/><ellipse class="cls-12" cx="161.52" cy="185.98" rx="4.08" ry="4.23"/><path class="cls-13" d="M169.57,249.14s7.82,8.12,17.34,3.53" transform="translate(-40.99 -36.28)"/><path class="cls-12" d="M152.48,199.24a39.43,39.43,0,0,1,10.05,2.3c3,1.11,4.33-3.72,1.33-4.82a44.35,44.35,0,0,0-11.38-2.48c-3.2-.28-3.18,4.72,0,5Z" transform="translate(-40.99 -36.28)"/><path class="cls-12" d="M201.36,207.51a34.13,34.13,0,0,1,8.86,0,2.51,2.51,0,0,0,2.5-2.5,2.55,2.55,0,0,0-2.5-2.5,38.21,38.21,0,0,0-10.19.14c-1.35.19-2.06,1.9-1.75,3.08a2.56,2.56,0,0,0,3.08,1.74Z" transform="translate(-40.99 -36.28)"/><path class="cls-12" d="M183.17,152.5c3.22,0,3.23-5,0-5s-3.22,5,0,5Z" transform="translate(-40.99 -36.28)"/><path class="cls-4" d="M132.16,221.65h.68a2.5,2.5,0,0,0,0-5h-.68a2.5,2.5,0,0,0,0,5Z" transform="translate(-40.99 -36.28)"/><path class="cls-4" d="M133.51,224.33c-6.19.42-7.37,8.93-.92,10.06a2.52,2.52,0,0,0,2.43-4.18c-2.47-2.78-9.12-5.42-10.44-.06s4.63,6.66,8.56,5.95a2.52,2.52,0,0,0,1.49-3.68c-2.73-3.66-6.95-5.39-11.38-3.69-1.81.69-2.72,3.54-.6,4.57q6,2.92,11.78,6.36c2.77,1.65,5.28-2.66,2.52-4.32l-14.92-9c-2.4-1.45-5.14,2-3,3.92A78.84,78.84,0,0,0,133.52,241c2.8,1.6,5.28-2.65,2.53-4.32L120,226.91a2.52,2.52,0,0,0-3.42,3.42c5.07,8.57,14.85,12,21.06,19.44l3.53-3.53-21.23-21a2.53,2.53,0,0,0-4.27,1.77c0,4.76,3,7.81,6.69,10.47,5.29,3.87,10.76,7.51,16.14,11.25,2.64,1.84,5.15-2.49,2.52-4.32l-11.08-7.71c-3.26-2.27-9.29-5.11-9.27-9.69l-4.27,1.77,21.24,21c2.33,2.31,5.56-1.1,3.53-3.53-5.89-7.1-15.5-10.37-20.27-18.43l-3.42,3.42L133.52,241l2.53-4.32a73.41,73.41,0,0,1-13.52-9.91l-3,3.92,14.93,9,2.52-4.32q-5.76-3.43-11.78-6.36l-.59,4.57c2.18-.84,4.25-.6,5.73,1.4l1.5-3.67c-2.36.42-1.75.87-.33,2.46l2.44-4.17-.41-.24c3.19-.21,3.21-5.22,0-5Z" transform="translate(-40.99 -36.28)"/><path class="cls-4" d="M121.26,214.58c-5.35,8-1.52,18.68,8,20.77l.66-4.91c-6.72-.61-8.89-7.88-5.55-13.08,1.51-2.35-2.08-5.22-3.93-3-7.45,8.84-.28,22.7,11.58,19.35a2.52,2.52,0,0,0,0-4.82c-2.68-.75-5.26-1.61-7.22-3.67-1.29-1.34-2.34-2.68-2.16-4.66-.46-1.52.23-2.35,2-2.48,2-1.85,2.87-1.34,2.61,1.51l4.57-.6c-1.94-3.34-5.5-8.38-10.06-7.19-4,1-4.64,5.93-4.47,9.3.41,7.83,7.95,17.33,16.18,11.26l-3-3.93c-5.41,5.06-10-7.52-8.8-11.29.72-2.32,1.28-3.29,3.72-2.53,2.17.68,2.28,1.4,2.27,3.54,0,2.88-1.67,5.38-3.13,7.78l4.57.59c-.92-3.24-2.3-14.65-8.31-12.21-5.53,2.25-2.36,12.26-.61,15.91l4.32-2.52c-2.13-3.2-5.65-9.31-1.67-12.55,2.87-2.33,3.25-.16,3.38,2.72a28.07,28.07,0,0,1-.6,6.78l4.91.67c0-4.57-1.58-11.42-6.62-13-4.25-1.37-6.81,2.3-7.26,6.05-1.4,11.77,9,20.65,20.23,19,3.17-.45,1.83-5.27-1.33-4.82a12.15,12.15,0,0,1-13.21-7.93c-.32-.89-1.7-6-.58-6.72,2.93-1.8,3.77,6.15,3.77,7.42,0,2.74,4.35,3.5,4.91.66,1.13-5.6,2.42-20.24-7.63-16.81-9.49,3.23-6.77,14.81-2.62,21.05a2.5,2.5,0,0,0,4.32-2.52,15.26,15.26,0,0,1-1.46-4.8c0,.14-.55-4.16-1-3-.58,1.43,1.82,6.46,2.26,8a2.53,2.53,0,0,0,4.57.6c3.09-5.09,6.17-12,1.54-17.23-3.62-4.1-9.55-2.82-12.36,1.5-5.92,9.1,5.53,29,16,19.24,2-1.89-.71-5.63-3-3.92-4.18,3.08-7.69-1.25-8.44-5.23-.34-1.81-.86-3.49.92-4.5,2.14-1.2,3,1.32,4.08,3.2a2.53,2.53,0,0,0,4.57-.59c2.36-7.88-7.73-12.6-12.7-6.25-6.84,8.72,3.62,16.9,11.26,19v-4.82c-6.71,1.89-11.09-5.8-6.72-11l-3.92-3c-5.6,8.71-.44,19.66,9.87,20.6,2.81.25,3.41-4.32.67-4.91-6.49-1.42-8.61-8.12-5-13.43,1.79-2.68-2.54-5.18-4.32-2.52Z" transform="translate(-40.99 -36.28)"/><path class="cls-4" d="M122.73,211.68c-7.59,1.47-6,13.37-3,18.09,4.51,7.29,13.3,9.16,21.25,7.77,3.17-.55,1.83-5.37-1.33-4.82-5,.87-10.59.12-14.25-3.7a11.47,11.47,0,0,1-2.86-5.44c-.35-1.57-.8-6.62,1.57-7.08,3.16-.61,1.82-5.43-1.33-4.82Z" transform="translate(-40.99 -36.28)"/><path class="cls-4" d="M129.31,231.92a74.49,74.49,0,0,0,7.5,19.32c1.59,2.84,5.7.35,4.32-2.52a107.36,107.36,0,0,1-6.71-18c-.87-3.18-5.28-1.76-4.82,1.33a58.89,58.89,0,0,0,9.88,25.07c1.82,2.63,6.16.14,4.32-2.52a55.48,55.48,0,0,1-9.38-23.88l-4.82,1.33a114.66,114.66,0,0,0,7.21,19.17l4.32-2.52a69.38,69.38,0,0,1-7-18.13c-.74-3.13-5.56-1.81-4.82,1.33Z" transform="translate(-40.99 -36.28)"/><path class="cls-14" d="M296.75,60.58c0,2.38,5.6,12.61,6.44,11.77-.84.84,9.39,6.44,11.77,6.44-2.38,0-12.61,5.59-11.77,6.44-.84-.85-6.44,9.38-6.44,11.77,0-2.39-5.59-12.62-6.44-11.77.85-.85-9.39-6.44-11.77-6.44,2.38,0,12.62-5.6,11.77-6.44C291.16,73.19,296.75,63,296.75,60.58Z" transform="translate(-40.99 -36.28)"/><path class="cls-14" d="M473.34,223c0,2.44,5.73,12.91,6.59,12.05-.86.86,9.62,6.59,12.06,6.59-2.44,0-12.92,5.73-12.06,6.59-.86-.86-6.59,9.62-6.59,12.06,0-2.44-5.73-12.92-6.59-12.06.86-.86-9.61-6.59-12.05-6.59,2.44,0,12.91-5.73,12.05-6.59C467.61,235.89,473.34,225.42,473.34,223Z" transform="translate(-40.99 -36.28)"/><path class="cls-14" d="M271.23,98.44c0,1.46,3.44,7.74,3.95,7.22-.51.52,5.76,4,7.22,4-1.46,0-7.73,3.43-7.22,4-.51-.52-3.95,5.76-3.95,7.22,0-1.46-3.43-7.74-4-7.22.52-.52-5.76-4-7.22-4,1.46,0,7.74-3.43,7.22-4C267.8,106.18,271.23,99.9,271.23,98.44Z" transform="translate(-40.99 -36.28)"/><path class="cls-14" d="M515.46,163.23c0,1.46,3.43,7.74,3.95,7.22-.52.52,5.76,4,7.22,4-1.46,0-7.74,3.43-7.22,3.95-.52-.52-3.95,5.76-3.95,7.22,0-1.46-3.43-7.74-4-7.22.52-.52-5.76-3.95-7.22-3.95,1.46,0,7.74-3.43,7.22-4C512,171,515.46,164.69,515.46,163.23Z" transform="translate(-40.99 -36.28)"/><path class="cls-14" d="M471.28,36.28c0,2.2,5.17,11.64,5.94,10.87-.77.77,8.67,5.94,10.87,5.94-2.2,0-11.64,5.16-10.87,5.94-.77-.78-5.94,8.66-5.94,10.86,0-2.2-5.16-11.64-5.94-10.86.78-.78-8.66-5.94-10.86-5.94,2.2,0,11.64-5.17,10.86-5.94C466.12,47.92,471.28,38.48,471.28,36.28Z" transform="translate(-40.99 -36.28)"/><path class="cls-14" d="M501.21,57.18c0,1.46,3.43,7.73,4,7.22-.52.51,5.76,3.95,7.22,3.95-1.46,0-7.74,3.43-7.22,4-.52-.52-4,5.76-4,7.22,0-1.46-3.43-7.74-3.95-7.22.52-.52-5.76-4-7.22-4,1.46,0,7.74-3.44,7.22-3.95C497.78,64.91,501.21,58.64,501.21,57.18Z" transform="translate(-40.99 -36.28)"/><path class="cls-14" d="M453.59,285c0,1.46,3.44,7.74,4,7.22-.51.52,5.76,3.95,7.22,3.95-1.46,0-7.73,3.44-7.22,3.95-.51-.51-4,5.76-4,7.23,0-1.47-3.43-7.74-3.95-7.23.52-.51-5.76-3.95-7.22-3.95,1.46,0,7.74-3.43,7.22-3.95C450.16,292.75,453.59,286.47,453.59,285Z" transform="translate(-40.99 -36.28)"/><ellipse class="cls-4" cx="375.89" cy="106.21" rx="11.43" ry="17.43"/><text class="cls-15" transform="translate(314.83 128.2)">＄０</text><path class="cls-5" d="M174.84,150.29s46.11,37.85,47.37,68,9.89-47.61,9.89-47.61Z" transform="translate(-40.99 -36.28)"/></g></g></g></svg>