<svg xmlns="http://www.w3.org/2000/svg" xmlns:xlink="http://www.w3.org/1999/xlink" viewBox="0 0 497.5 494.14"><defs><style>.cls-1,.cls-11,.cls-12,.cls-5{fill:none;}.cls-2{clip-path:url(#clip-path);}.cls-3{fill:#9d8777;}.cls-4{fill:#d8c8b7;}.cls-12,.cls-5{stroke:#201613;}.cls-10,.cls-11,.cls-12,.cls-5,.cls-6,.cls-9{stroke-miterlimit:10;}.cls-5,.cls-7,.cls-9{stroke-width:3px;}.cls-6,.cls-7,.cls-9{fill:#fff;}.cls-6{stroke:#231815;}.cls-7,.cls-9{stroke:#1f1512;}.cls-7{stroke-linecap:round;stroke-linejoin:round;}.cls-8{fill:#201613;}.cls-10,.cls-11{stroke:#fff;}.cls-12{stroke-dasharray:4 5 0 0 0 0;}.cls-13{fill:#1f1512;}.cls-14{fill:#231815;}.cls-15{fill:#3f2f20;}</style><clipPath id="clip-path" transform="translate(-19.51 -28.86)"><rect class="cls-1" width="542.47" height="510.26"/></clipPath></defs><title>資產 21</title><g id="圖層_2" data-name="圖層 2"><g id="線搞5"><g class="cls-2"><path class="cls-3" d="M459.66,261.65l-.23-.12a59.75,59.75,0,0,1-10.61-6.48,33.27,33.27,0,0,1-3.36-4.15,5.06,5.06,0,0,0-2.13-1.82c-.23-.42-.46-.84-.67-1.26a5.16,5.16,0,0,0-1.07-1.45c0-.21-.07-.42-.1-.64a4.93,4.93,0,0,0,.6-2.27,5.08,5.08,0,0,0-1.47-3.53,5,5,0,0,0-3.53-1.47,6.08,6.08,0,0,0-1.55.29,4.25,4.25,0,0,0-4.11,2.89,4.64,4.64,0,0,0-1.87,3.81c0,.64,0,1.28,0,1.93a38.82,38.82,0,0,0-2.73,4.25,82.72,82.72,0,0,0-9.43,14.12,5.73,5.73,0,0,0-.54,1.53q-11.81,15.17-23,30.82a148.84,148.84,0,0,0-14,18.85,141,141,0,0,0-22.51,24.65,108,108,0,0,0-16.23,13.62c-2.22,1.68-4.38,3.48-6.47,5.38a62.49,62.49,0,0,0-18.27,11c-2.44.62-4.87,1.3-7.27,2.07a5,5,0,0,0-2.71,2.09,4.35,4.35,0,0,0-2,1.45,4.55,4.55,0,0,0-1.26,3.28,5.06,5.06,0,0,0,.12.87,28.7,28.7,0,0,0-7.92,16.77l-.9,1.58-.06.12c-.24.33-.5.65-.73,1a5.35,5.35,0,0,0-.91,1.11l-1.53,2.48a4.16,4.16,0,0,0-4.08-1.94,40.93,40.93,0,0,1-23.53-5.17,4.86,4.86,0,0,0-6.88,2.2c-6.42-6.06-12.36-12.73-18.14-18.45a4.55,4.55,0,0,0-4.83-1.21L217,359.59c-2.39-2.9-5.79-1.68-7.39.82-.82-1.11-1.64-2.2-2.45-3.31a5.41,5.41,0,0,0-7.7-1c-1-1.3-2.08-2.58-3.11-3.88a7.76,7.76,0,0,0-.13-.82c-1.15-5.45-5.09-7.75-9.13-7.73q-11.22-14-23.26-27.29c-1.4-1.66-2.8-3.33-4.23-5q-5.35-6.8-10.7-13.61Q138,282,127.49,265.88a5.7,5.7,0,0,0-.52-.67l-23-41.17-1-1.85a5.18,5.18,0,0,0-.53-.79l-.37-1c0-.06,0-.12,0-.19a4.83,4.83,0,0,0-.36-.9c-.36-1-.73-2-1.1-3-1.77-4.87-8.48-4.08-9.75-.35a6.07,6.07,0,0,0-1.17,1.81l-1.47,3.51a3.36,3.36,0,0,0-.14.45,45.39,45.39,0,0,1-10.68,7,4.19,4.19,0,0,0-2.44,2.76,5.26,5.26,0,0,0-2.49,3.84,5.1,5.1,0,0,0,.24,3.79q8.8,19.22,18.42,38a5,5,0,0,0,.32,3.62,520,520,0,0,0,34,61.36,153.58,153.58,0,0,0,12.83,23.31,5.48,5.48,0,0,0,2,1.89,133.59,133.59,0,0,0,8.61,14.4,4.85,4.85,0,0,0,.78,2.42q7,11.24,15,21.77c3.23,7.55,8.52,13.71,13.52,20.16l9.33,12c2.73,7.37,3.15,15.31,2.51,23.15a4.52,4.52,0,0,0-2.72,3.22q-2,7.47-3.95,14.94a5.92,5.92,0,0,0-.21,1.67c-.16.67-.33,1.35-.5,2a4.76,4.76,0,0,0,1.38,4.84q-.78,3.92-1.33,7.91c-.08.42-.15.84-.22,1.26a5,5,0,0,0-1.75,1.5,8.06,8.06,0,0,0-1.4,6.09,37.25,37.25,0,0,1-1.47,4.32,4.08,4.08,0,0,0,.81,4.35,4.56,4.56,0,0,1,2.85-.28,12.67,12.67,0,0,1,8.6-1.13c0-.09.1-.17.13-.26a21,21,0,0,1,5.22-.44,10.27,10.27,0,0,0,3.2.83,11.71,11.71,0,0,0,3.82-.31c.64.06,1.25.1,1.8.12l8.45.31a12.76,12.76,0,0,0,2.51.72,5,5,0,0,0,3.47.36,27.87,27.87,0,0,1,4.31-.71l3.68.13a4.38,4.38,0,0,0,1.64-.26c3.17.11,6.36.48,9.54.77,1,.1,2,.17,3,.26q6.82.92,13.66,1.75c3.51,4.73,8.15,10.2,13.7,6.73a5.08,5.08,0,0,0,2.41-4.85l.42.05a3.89,3.89,0,0,0,3.76-1.65c1.06,0,2.11.08,3.17.1,5.07.13,9.57,0,12.6-4.56a5.44,5.44,0,0,0,.56-1.1,79.6,79.6,0,0,0,13.91,2.84,4.37,4.37,0,0,0,2.63-.45,28.26,28.26,0,0,0,4,0,5.2,5.2,0,0,0,3.69.79l.23,0a5.94,5.94,0,0,0,3.27-.35,55,55,0,0,1,14.32.77l.6,1.24c1.33,2.81,4.72,3,7,1.54l.08.17c0,.33,0,.66.06,1,.31,6.41,10.31,6.44,10,0-.06-1.22-.14-2.44-.23-3.65a5,5,0,0,0,.48-5.22l-1.42-3a114.88,114.88,0,0,0-4-17.51c-.31-1.25-.63-2.5-1-3.74a175.09,175.09,0,0,0-4.8-28.92q1-5,2.33-10l1.76-2.44a70.2,70.2,0,0,0,22.32-23.37c1-.89,2.06-1.8,3.11-2.68a4.07,4.07,0,0,0,1.64-3.85c.81-.94,1.59-1.9,2.37-2.86a4.6,4.6,0,0,0,2.78-1.5,82.42,82.42,0,0,0,15.52-23.49,4.84,4.84,0,0,0,4.45-2.26q12.33-18.52,22.87-38.1a4.78,4.78,0,0,0,2-2q5.56-10,10.33-20.41A191.14,191.14,0,0,0,445.31,301a4.82,4.82,0,0,0,1.6-1.71L463,271.76a4.77,4.77,0,0,0,.7-2.72C465.58,265.43,462.74,262.1,459.66,261.65Z" transform="translate(-19.51 -28.86)"/><rect class="cls-4" x="112.01" y="51.95" width="270" height="103.95"/><path class="cls-5" d="M177.3,511.61l3.52-15.84,4.74-21.36c1.69-7.59,4.71-15.71,5-23.45.39-9.57-7.27-16.53-12.58-23.8s-10.66-14.88-15.81-22.46Q139,370.61,118.86,334.6A949.32,949.32,0,0,1,69,232.34s7.94,3.17,29-21.42c0,0,38.08,70.61,55.93,90.84s27,37.28,57.12,64.65,99.16,15.08,125.74-8.33l26.58-23.4s55.53-67,72.19-98.37c0,0,13.88,24.19,31.73,27.37-13.91,25.9-28.77,51.35-44.17,76.39-12.49,20.31-25.43,40.4-39.51,59.66-6.2,8.49-12.62,16.84-19.53,24.76-5.46,6.26-12.16,11.32-17.65,17.41-10.36,11.49-2.45,33.23.7,46.19.34,1.44,2.53,12.18,4.6,21.25" transform="translate(-19.51 -28.86)"/><polygon class="cls-6" points="229.19 329.62 232.37 368.49 258.15 371.26 262.91 329.62 229.19 329.62"/><path class="cls-7" d="M218.16,375.93s26.57,33.32,35.7,40.06L265,402.11,279.24,416s9.52-3.17,26.58-40.06l-19-10.31L265.36,395,239.18,368.4Z" transform="translate(-19.51 -28.86)"/><path class="cls-8" d="M233.63,242.89s36.09-22.55,77.74,3.87,47.6,146-28.16,124.52c-12.23,0-30.94.76-30.94.76s-22.61,6.79-43.24-3-30.94-30.94-21.81-75.47S224.5,239.49,233.63,242.89Z" transform="translate(-19.51 -28.86)"/><path class="cls-9" d="M245.92,271.71s-33.69,0-27.42,52.93c-3.69-2.37-7.63-2.92-10.44-1-4.51,3-4.39,11.11.27,18.1,4.21,6.32,10.69,9.55,15.23,7.89.15.56.29,1.1.45,1.67,7.81,23.19,25.73,32.7,45.44,30.72s36.77-9.85,38-65.81S245.92,271.71,245.92,271.71Z" transform="translate(-19.51 -28.86)"/><line class="cls-10" x1="112.01" y1="51.95" x2="112.01" y2="155.95"/><line class="cls-10" x1="127.01" y1="51.95" x2="127.01" y2="155.95"/><line class="cls-10" x1="142.01" y1="51.95" x2="142.01" y2="155.95"/><line class="cls-10" x1="157.01" y1="51.95" x2="157.01" y2="155.95"/><line class="cls-10" x1="172.01" y1="51.95" x2="172.01" y2="155.95"/><line class="cls-10" x1="187.01" y1="51.95" x2="187.01" y2="155.95"/><line class="cls-10" x1="202.01" y1="51.95" x2="202.01" y2="155.95"/><line class="cls-10" x1="217.01" y1="51.95" x2="217.01" y2="155.95"/><line class="cls-10" x1="232.01" y1="51.95" x2="232.01" y2="155.95"/><line class="cls-10" x1="247.01" y1="51.95" x2="247.01" y2="155.95"/><line class="cls-10" x1="262.01" y1="51.95" x2="262.01" y2="155.95"/><line class="cls-10" x1="277.01" y1="51.95" x2="277.01" y2="155.95"/><line class="cls-10" x1="292.01" y1="51.95" x2="292.01" y2="155.95"/><line class="cls-10" x1="307.01" y1="51.95" x2="307.01" y2="155.95"/><line class="cls-10" x1="322.01" y1="51.95" x2="322.01" y2="155.95"/><line class="cls-10" x1="337.01" y1="51.95" x2="337.01" y2="155.95"/><line class="cls-10" x1="352.01" y1="51.95" x2="352.01" y2="155.95"/><line class="cls-10" x1="367.01" y1="51.95" x2="367.01" y2="155.95"/><line class="cls-10" x1="382.01" y1="51.95" x2="382.01" y2="155.95"/><line class="cls-11" x1="112.01" y1="51.95" x2="382.01" y2="51.95"/><line class="cls-11" x1="112.01" y1="64.95" x2="382.01" y2="64.95"/><line class="cls-11" x1="112.01" y1="77.95" x2="382.01" y2="77.95"/><line class="cls-11" x1="112.01" y1="90.95" x2="382.01" y2="90.95"/><line class="cls-11" x1="112.01" y1="103.95" x2="382.01" y2="103.95"/><line class="cls-11" x1="112.01" y1="116.95" x2="382.01" y2="116.95"/><line class="cls-11" x1="112.01" y1="129.95" x2="382.01" y2="129.95"/><line class="cls-11" x1="112.01" y1="142.95" x2="382.01" y2="142.95"/><line class="cls-11" x1="112.01" y1="155.95" x2="382.01" y2="155.95"/><circle class="cls-12" cx="89.08" cy="23.62" r="16"/><circle class="cls-12" cx="89.08" cy="423.15" r="19.18"/><circle class="cls-12" cx="17.08" cy="378.91" r="8.07"/><circle class="cls-12" cx="76.39" cy="314.8" r="12.69"/><circle class="cls-12" cx="418.58" cy="350.59" r="12.69"/><circle class="cls-12" cx="445.8" cy="427.96" r="18.07"/><circle class="cls-12" cx="483.62" cy="290.27" r="9.04"/><circle class="cls-12" cx="36.26" cy="87.58" r="11.11"/><circle class="cls-12" cx="284.39" cy="8.22" r="7.72"/><circle class="cls-12" cx="483.62" cy="136.85" r="10.18"/><circle class="cls-12" cx="453.17" cy="53.34" r="8.69"/><circle class="cls-12" cx="419.36" cy="155.16" r="12.72"/><circle class="cls-13" cx="222.39" cy="292.82" r="4.33"/><circle class="cls-13" cx="266.4" cy="292.82" r="4.33"/><circle class="cls-13" cx="247.6" cy="316.24" r="2.19"/><path class="cls-13" d="M235.22,307.06a32.88,32.88,0,0,1,5.25.16,26.28,26.28,0,0,1,2.79.5c.61.14,2.06,1,1.44-.1,1.52,2.83,5.84.31,4.32-2.53-1-1.86-3.86-2.11-5.72-2.45a35.86,35.86,0,0,0-8.08-.58c-3.21.12-3.22,5.12,0,5Z" transform="translate(-19.51 -28.86)"/><path class="cls-13" d="M280.9,309a35.87,35.87,0,0,1,5.07-1.48c.85-.17,1.7-.31,2.56-.4s2.63.35,1.56-.66c2.33,2.22,5.87-1.31,3.53-3.54-1.62-1.55-4.29-.91-6.3-.65a35,35,0,0,0-7.75,1.91c-3,1.11-1.7,5.94,1.33,4.82Z" transform="translate(-19.51 -28.86)"/><path class="cls-13" d="M257.41,358.06a29.35,29.35,0,0,0,19.9-.93c2.2-.91,1.23-4.53-1-3.61a26.14,26.14,0,0,1-17.9.93c-2.32-.7-3.3,2.92-1,3.61Z" transform="translate(-19.51 -28.86)"/><path class="cls-8" d="M241.32,256.66s27.37,32.11,72.59,53.41l7.54-36.32Z" transform="translate(-19.51 -28.86)"/><path class="cls-8" d="M458.25,198.77c7.62-2.67,4.06,9.82,3.43,12.77a27.25,27.25,0,0,0-.69,9c.19,1.58,2.69,1.6,2.5,0-.78-6.51,2.71-12.56,2-19-.51-4.74-3.39-6.78-7.94-5.19-1.51.53-.86,2.94.67,2.41Z" transform="translate(-19.51 -28.86)"/><path class="cls-8" d="M463.39,220.9A190.16,190.16,0,0,1,487.56,196c1.23-1-.55-2.81-1.76-1.76a189.52,189.52,0,0,0-24.18,24.88c-1,1.24.76,3,1.77,1.77Z" transform="translate(-19.51 -28.86)"/><path class="cls-8" d="M480.51,218.41q6.18-6.82,12.53-13.49c2.52-2.63,14.23-16.67,17.54-7.71.56,1.5,3,.85,2.41-.66-2.2-6-8.94-5.07-13.18-1.83-7.84,6-14.47,14.63-21.07,21.92-1.08,1.19.69,3,1.77,1.77Z" transform="translate(-19.51 -28.86)"/><path class="cls-8" d="M487,226.34c6.34-7.36,12.72-14.83,21.45-19.43,1.43-.75.17-2.9-1.26-2.15-8.92,4.69-15.47,12.28-21.95,19.81-1.05,1.22.71,3,1.76,1.77Z" transform="translate(-19.51 -28.86)"/><path class="cls-8" d="M510.37,196.75c-.63,3.42-3.07,5.86-5.47,8.2-1.16,1.12.61,2.89,1.77,1.77,2.69-2.63,5.4-5.48,6.11-9.31.29-1.57-2.11-2.24-2.41-.66Z" transform="translate(-19.51 -28.86)"/><path class="cls-8" d="M490.14,234.42c7.79-5.65,15.46-11.52,21.71-18.91,1-1.22-.73-3-1.77-1.77-6.11,7.24-13.58,13-21.2,18.52-1.29.94-.05,3.11,1.26,2.16Z" transform="translate(-19.51 -28.86)"/><path class="cls-8" d="M501,226.86a23.28,23.28,0,0,1,5-2.72,21.19,21.19,0,0,1,2.22-.7l.91-.22q2.46-1,3.34,1.95c-1.2,1.07.57,2.83,1.77,1.76,2.33-2.07.89-5.4-1.87-6.18-4.12-1.16-9.39,1.69-12.66,3.95-1.32.92-.07,3.08,1.26,2.16Z" transform="translate(-19.51 -28.86)"/><path class="cls-8" d="M461.82,262.61c20.06-8.42,36.66-22.43,53-36.48,1.22-1-.56-2.81-1.77-1.77-16,13.75-32.25,27.6-51.87,35.83-1.46.62-.82,3,.66,2.42Z" transform="translate(-19.51 -28.86)"/><path class="cls-8" d="M457.4,196c-5.12,6.58-6,14.23-9.1,21.77-3.26,8.1-7.73,15.57-8.95,24.35-.22,1.57,2.19,2.25,2.41.66,1.13-8.1,5-15.11,8.2-22.53s4.07-15.87,9.2-22.49c1-1.25-.78-3-1.76-1.76Z" transform="translate(-19.51 -28.86)"/><path class="cls-8" d="M487,196.38c2.47-1.7,8.39-5.57,10.42-1.53.72,1.43,2.88.17,2.15-1.27-2.83-5.64-10.16-1.89-13.83.64-1.31.91-.06,3.08,1.26,2.16Z" transform="translate(-19.51 -28.86)"/><path class="cls-8" d="M508.06,207c1.77-1.3,6.22-2.43,6,1.27-.09,1.61,2.41,1.6,2.5,0a5.13,5.13,0,0,0-3.48-4.94,7.78,7.78,0,0,0-6.29,1.51c-1.28,1,0,3.12,1.26,2.16Z" transform="translate(-19.51 -28.86)"/><path class="cls-8" d="M513.77,210.13l-.7,1.29c-.78,1.41,1.38,2.67,2.15,1.26l.71-1.28c.77-1.42-1.39-2.68-2.16-1.27Z" transform="translate(-19.51 -28.86)"/><path class="cls-8" d="M511.32,216.32a22.24,22.24,0,0,0,4.29-4,1.28,1.28,0,0,0,0-1.77,1.25,1.25,0,0,0-1.76,0,19.89,19.89,0,0,1-3.79,3.6,1.25,1.25,0,1,0,1.26,2.16Z" transform="translate(-19.51 -28.86)"/><path class="cls-8" d="M514.51,207.49a6,6,0,0,1-1,2.94c-.89,1.34,1.28,2.6,2.16,1.26a8.63,8.63,0,0,0,1.39-4.2c.11-1.61-2.39-1.6-2.5,0Z" transform="translate(-19.51 -28.86)"/><path class="cls-8" d="M79.23,166.78c-13.23-5.14-5.84,18.62-6.62,23.73-.24,1.58,2.16,2.25,2.41.67a28.21,28.21,0,0,0-.36-9.39c-.58-3.27-3.5-15.48,3.91-12.6,1.5.58,2.15-1.84.66-2.41Z" transform="translate(-19.51 -28.86)"/><path class="cls-8" d="M74.64,189.64a189.59,189.59,0,0,0-23.53-25.92c-1.18-1.09-3,.67-1.76,1.76A188.37,188.37,0,0,1,72.49,190.9c1,1.27,3.12,0,2.15-1.26Z" transform="translate(-19.51 -28.86)"/><path class="cls-8" d="M57.42,186.33Q52.07,180,46.57,173.81c-3.23-3.63-6.37-7.92-10.35-10.76-4.16-3-10.18-3.2-12.35,2.14-.61,1.48,1.81,2.13,2.41.66,2-4.8,7.8-1.55,10.36.82,2.26,2.1,4.26,4.55,6.32,6.85q6.47,7.18,12.7,14.58c1,1.23,2.8-.55,1.76-1.77Z" transform="translate(-19.51 -28.86)"/><path class="cls-8" d="M50.71,194c-6.23-7.73-12.53-15.54-21.29-20.52a1.25,1.25,0,0,0-1.27,2.16c8.58,4.87,14.7,12.57,20.79,20.13,1,1.26,2.77-.52,1.77-1.77Z" transform="translate(-19.51 -28.86)"/><path class="cls-8" d="M24.08,166.06c.58,3.85,3.22,6.78,5.82,9.49,1.12,1.16,2.88-.61,1.77-1.77-2.33-2.42-4.66-4.94-5.18-8.39-.25-1.58-2.66-.91-2.41.67Z" transform="translate(-19.51 -28.86)"/><path class="cls-8" d="M47,201.81C39.5,196,32.12,189.91,26.2,182.4c-1-1.27-2.75.51-1.77,1.77,5.93,7.51,13.31,13.57,20.83,19.41,1.25,1,3-.78,1.77-1.77Z" transform="translate(-19.51 -28.86)"/><path class="cls-8" d="M36.14,193.7c-3.18-2.35-8.4-5.39-12.53-4.33-2.8.71-4.26,4-2,6.13,1.17,1.11,2.94-.65,1.77-1.76.52-1.73,1.42-2.37,2.68-1.93a9.08,9.08,0,0,1,1.7.38,20.35,20.35,0,0,1,2.47.91,23.83,23.83,0,0,1,4.66,2.76c1.29,1,2.54-1.21,1.26-2.16Z" transform="translate(-19.51 -28.86)"/><path class="cls-8" d="M73.85,230.59c-19.46-8.94-35.35-23.32-50.95-37.68-1.18-1.08-3,.68-1.77,1.77,15.75,14.5,31.81,29,51.45,38.07,1.46.66,2.73-1.49,1.27-2.16Z" transform="translate(-19.51 -28.86)"/><path class="cls-8" d="M77.48,167.9c4.86,6.71,5.46,14.7,8.34,22.27s6.81,15,7.7,23.23c.17,1.58,2.67,1.6,2.5,0-.92-8.55-4.77-16-7.79-23.9s-3.58-15.95-8.59-22.86c-.94-1.29-3.11,0-2.16,1.26Z" transform="translate(-19.51 -28.86)"/><path class="cls-8" d="M51.14,163.7c-3.62-2.67-10.76-6.6-13.79-1-.77,1.42,1.39,2.68,2.16,1.26,2.14-3.93,8,.19,10.37,1.94,1.29,1,2.54-1.21,1.26-2.16Z" transform="translate(-19.51 -28.86)"/><path class="cls-8" d="M30,173.82a8.06,8.06,0,0,0-6.32-1.92,5.12,5.12,0,0,0-3.78,4.89,1.25,1.25,0,0,0,2.5,0c-.08-3.43,4.12-2.55,5.83-1.2,1.25,1,3-.77,1.77-1.77Z" transform="translate(-19.51 -28.86)"/><path class="cls-8" d="M20.48,179.92l.66,1.31a1.26,1.26,0,0,0,1.71.45A1.28,1.28,0,0,0,23.3,180l-.66-1.31a1.25,1.25,0,1,0-2.16,1.26Z" transform="translate(-19.51 -28.86)"/><path class="cls-8" d="M26.2,182.82a19,19,0,0,1-3.47-3.47A1.29,1.29,0,0,0,21,178.9a1.27,1.27,0,0,0-.45,1.71A23.48,23.48,0,0,0,24.94,185a1.26,1.26,0,0,0,1.71-.45,1.28,1.28,0,0,0-.45-1.71Z" transform="translate(-19.51 -28.86)"/><path class="cls-8" d="M19.51,176a8.6,8.6,0,0,0,1.27,4.24c.84,1.37,3,.11,2.15-1.26a6.06,6.06,0,0,1-.92-3c-.06-1.6-2.56-1.61-2.5,0Z" transform="translate(-19.51 -28.86)"/><path class="cls-14" d="M436.4,236.46a4.47,4.47,0,0,1,2.2,2.13c.35.72,1.43.09,1.08-.63a5.53,5.53,0,0,0-2.65-2.58c-.73-.33-1.36.75-.63,1.08Z" transform="translate(-19.51 -28.86)"/><path class="cls-14" d="M437.29,237.32a2.65,2.65,0,0,1,2.18.59c.61.52,1.5-.36.89-.88a4,4,0,0,0-3.41-.91c-.79.14-.45,1.34.34,1.2Z" transform="translate(-19.51 -28.86)"/><path class="cls-14" d="M436.72,236.52a4.45,4.45,0,0,1,2.45.73c.68.44,1.31-.64.64-1.08a5.65,5.65,0,0,0-3.09-.9.63.63,0,0,0,0,1.25Z" transform="translate(-19.51 -28.86)"/><path class="cls-14" d="M438.47,237.1v2.78a.63.63,0,0,0,1.25,0V237.1a.63.63,0,0,0-1.25,0Z" transform="translate(-19.51 -28.86)"/><path class="cls-14" d="M464.86,261.32l1.58,1.59a.63.63,0,0,0,.89-.89l-1.59-1.58a.62.62,0,0,0-.88.88Z" transform="translate(-19.51 -28.86)"/><path class="cls-14" d="M465.93,260.82l.79,1.58c.36.72,1.44.09,1.08-.63l-.79-1.58c-.36-.72-1.44-.09-1.08.63Z" transform="translate(-19.51 -28.86)"/><path class="cls-14" d="M466,261a3,3,0,0,1,.64,1.92.63.63,0,0,0,1.25,0,4.37,4.37,0,0,0-1-2.81c-.5-.63-1.38.26-.89.89Z" transform="translate(-19.51 -28.86)"/><polygon class="cls-15" points="403.34 8.32 369.71 17.33 378.23 25.85 267.06 123.62 243.06 106.95 210.06 134.62 163.39 79.29 136.39 101.29 118.72 79.29 134.72 112.29 161.06 91.29 209.72 148.95 241.72 120.95 266.73 143.95 386.12 33.74 394.33 41.95 403.34 8.32"/></g></g></g></svg>