<svg xmlns="http://www.w3.org/2000/svg" xmlns:xlink="http://www.w3.org/1999/xlink" viewBox="0 0 509.24 508.18"><defs><style>.cls-1,.cls-8,.cls-9{fill:none;}.cls-2{clip-path:url(#clip-path);}.cls-3{fill:#9d8777;}.cls-4,.cls-7{fill:#fff;}.cls-5{fill:#201613;}.cls-13,.cls-6{fill:#1f1512;}.cls-6{stroke:#1f1512;}.cls-6,.cls-7,.cls-8{stroke-miterlimit:10;}.cls-7,.cls-8{stroke:#201613;}.cls-7,.cls-8,.cls-9{stroke-width:3px;}.cls-9{stroke:#231815;stroke-linecap:round;stroke-linejoin:round;}.cls-10{fill:#231815;}.cls-11{fill:#d8c8b7;}.cls-12{fill:#3f2f20;}</style><clipPath id="clip-path" transform="translate(-21.71 -15.97)"><rect class="cls-1" width="542.47" height="509.48"/></clipPath></defs><title>資產 20</title><g id="圖層_2" data-name="圖層 2"><g id="線搞5"><g class="cls-2"><path class="cls-3" d="M526.6,291.73a34.05,34.05,0,0,0-1.24-3.56A42.08,42.08,0,0,0,519.71,276a65.71,65.71,0,0,0-4.07-6.62c-2.72-3.91-5.74-7.62-8.82-11.25-2.4-2.82-4.76-5.48-8.08-6.9-.08-.09-.15-.18-.23-.26q-1.61-2-3.33-3.9c-7.88-8.73-16.75-16.62-25.22-24.77l-26.61-25.58a4.92,4.92,0,0,0-2.64-1.36,5.09,5.09,0,0,0-1.2-1.13,4.65,4.65,0,0,0-1.15-1.88,4.74,4.74,0,0,0-.82-.64,4.27,4.27,0,0,0-2.33-1.42c-2.48-.56-5.6.75-6.15,3.49l-.27,1.39-9.72,8.43c-4,3.24-8,6.58-11.81,10.06a5.36,5.36,0,0,0-.9,1c-3.55.05-7,3.58-4.37,7.25l21.73,30.76c7.7,21.05,28.74,35.3,35.4,56.57q-2.16,1.45-4.2,3.07c-.42.21-.83.41-1.24.63a13.51,13.51,0,0,0-4,3.27,39,39,0,0,0-7.84,6.93c-4.23,3.13-8.53,6.13-13,8.81-10.29,6.2-22.86,7.1-32.7,14.24a5.1,5.1,0,0,0-2,3A70.13,70.13,0,0,0,377.19,360a4.83,4.83,0,0,0-1.27,1.63l-1.41.34c-5.31,1.3-4.19,8.46.1,9.64a5,5,0,0,0,.17.77,5.1,5.1,0,0,0,.41,4.36,5.05,5.05,0,0,0-1.55,1.5c-2.3.82-4,3-3.22,5.4a5.16,5.16,0,0,0-3.36,3.76c-3.69-1.24-8.35,2.3-6.48,6.33a5.84,5.84,0,0,0-1.67,0,12.15,12.15,0,0,0-10.08,3.91L345.11,393c-2.28-2.93-5.59-1.78-7.23.67-3.38.16-6.62,3.66-4.3,7.38,1.18,1.89,2.38,3.76,3.57,5.63a5.66,5.66,0,0,0-4.28,4.73,4,4,0,0,0-3,1.35l-1.8,0c-.52-.64-1-1.29-1.55-1.94-2.62-3.27-6.52-1.39-7.82,1.69h-.58l-4.05-.15-17.41-6.43a5.88,5.88,0,0,0-1.05-.28c.1-3.08-2.34-6.28-6.13-5.07-1.09.35-2.18.64-3.28.9a4.93,4.93,0,0,0-4.2.79c-.88.12-1.78.21-2.68.26a5.54,5.54,0,0,0-2.9,1,5.11,5.11,0,0,0-1.08.48,103.53,103.53,0,0,1-17.49,8.2l-.22.14a22.44,22.44,0,0,1-5.08,4.3,4.73,4.73,0,0,0-1.1,4.53,4.45,4.45,0,0,0,.64,1.36c-3.39,3.46-6.89,7-9.34,10.93-2,3.26-2.51,7.51-2.7,11.68a65.71,65.71,0,0,0-1.83,7.82,21.63,21.63,0,0,0-1.78,16,36.52,36.52,0,0,0-2.25,12.66,4.8,4.8,0,0,0,1.4,3.34c-.73,6.17-1.11,13.71,0,19.2-1.46,3,.18,7.31,4.33,7.33h.58a6.31,6.31,0,0,0,3.49-.16,4.15,4.15,0,0,0,1.27.9c8.87,4.09,18.46,1.59,27.84,1.22a172.86,172.86,0,0,1,32,1.68,6,6,0,0,0,6.05-3.29,6.17,6.17,0,0,0,4.27.09l26.48-.87q1.68,1.61,3.39,3.2a4.93,4.93,0,0,0,7.08-.27,5.29,5.29,0,0,0,6.33-1.78l1.22,1.29a4.45,4.45,0,0,0,5.67.88l.88,1.08c2.6,3.15,6.36,1.45,7.75-1.46a3.88,3.88,0,0,0,5,.26c.63.91,1.26,1.83,1.88,2.75,3.63,5.27,12.3.27,8.64-5.05l-.07-.1c.22-.12.44-.27.66-.42l1.23,1.71a5.36,5.36,0,0,0,7.83.9c2.88,3.22,7.14.53,7.86-3.07a5.61,5.61,0,0,0,4.64-.72c1.42,1.7,2.86,3.38,4.35,5,4,4.36,9.42,11.71,16,7.85a5.07,5.07,0,0,0,2.45-3.81l.57.61c2.79,3,9,.85,8.53-3.53,0-.42-.1-.81-.16-1.21a4.47,4.47,0,0,0,3.08-1.2c3,4.55,10.08,5.28,11.66,0a4.53,4.53,0,0,0,3.88-1.14,5.82,5.82,0,0,0,5.74-1.44l0,0a5.47,5.47,0,0,0,7.64,1l.83,1.05a4,4,0,0,0,3.59,1.7,5.35,5.35,0,0,0,6.11-.71l1.35,1.6c4.19,4.89,11.24-2.21,7.07-7.08-6.9-8.05-13.64-16.39-20.93-24.17l-5.92-10.13a5.38,5.38,0,0,0-.44-1.67q-6.79-15.45-13.6-30.89c-.19-3.28-.21-6.54-.08-9.79,0-.14.1-.28.14-.43A133.7,133.7,0,0,1,459.85,414,4.88,4.88,0,0,0,461,412.4c1.93-4,3.93-8,6-12l3.29-5.26a5.5,5.5,0,0,0,5.78-6.24l-.39-2.35c.94-1.5,1.87-3,2.81-4.49,4.85-6.81,9.91-13.5,14.81-20.24a67.38,67.38,0,0,0,18.86-24.62,62.37,62.37,0,0,0,9.14-14.83,6.19,6.19,0,0,0,.55-.58A30.5,30.5,0,0,0,526.6,291.73Z" transform="translate(-21.71 -15.97)"/><path class="cls-4" d="M246.81,404.66a4.76,4.76,0,0,0-2.68-.76c-4.51,0-5.85,4.91-4,7.85A37.17,37.17,0,0,1,246.81,404.66Z" transform="translate(-21.71 -15.97)"/><path class="cls-5" d="M332.67,221.93c-82.55-26.11-95.25,32.81-95.25,32.81-44.1,23.28-2.82,94.55,18,108.31s43.75,0,43.75,0l51.15-18.35C393,349.64,415.22,248,332.67,221.93Z" transform="translate(-21.71 -15.97)"/><path class="cls-6" d="M294.68,383.69s7.76-34.93,66.32-32.46l3.88,13.4-8.82,14.47-17.29,6-14.46,5.29H307.38Z" transform="translate(-21.71 -15.97)"/><polygon class="cls-7" points="267.92 337.55 291.91 379.53 326.83 368.24 340.94 347.78 309.19 305.09 267.92 337.55"/><path class="cls-5" d="M245.89,265.32s15.44-4.94,40.35,7.41,64.07,2.82,64.07,2.82l-25.05-39.16-64.91,3.86Z" transform="translate(-21.71 -15.97)"/><path class="cls-8" d="M235.9,509.92c-.9-30.15-6.47-67,16.92-90.63,10.67-10.8,26.82-16.23,40.86-21.24a186.83,186.83,0,0,1,30.17-7.84c8.47-1.06,16.94-1.06,24.34-6.35,9.53-8.47,19.05-13.76,27.52-22.23a146.85,146.85,0,0,1,27-18.57c9.93-5.29,21.32-7.93,30.57-14.48s15.57-16.15,26.39-20.92" transform="translate(-21.71 -15.97)"/><path class="cls-9" d="M464.61,319.3c-2.84-7.11-5.69-14.51-10.64-20.45-20.91-25.09-36.16-54.33-56-80.45,8.26-4.48,2.42,4.24,0,0,14.94-7.14,27.49-18.67,37-32.1,5.7,6-2.09,3.3,0,0,18,22.93,41.28,40.92,62.44,61,9.53,9.53,18,19,25.4,30.69,1.06,2.12,2.12,5.3,3.18,7.41,8.47,18,0,34.93-10.58,49.75-11.38,15.92-23.73,31.13-34.77,47.3-5.46,8-10.64,16.17-15.28,24.66q-3.5,6.39-6.55,13c-1.71,3.7-4.45,8.14-4.58,12.28s1.67,9.38,2.73,13.52a116.11,116.11,0,0,0,4.7,14.57,91.2,91.2,0,0,0,15.64,26c7.41,7.41,13.76,15.88,21,24.18" transform="translate(-21.71 -15.97)"/><path class="cls-7" d="M295.28,383.15s52.21,25.41,65.61-31.75L380,359.87s6,34.22-20.11,49l-21.93-17.64-5.24,28.22s-33.94,1.77-46.43-16.23Z" transform="translate(-21.71 -15.97)"/><path class="cls-5" d="M343.54,146.34c8.06.71,6.84,12.8,2.83,17-1.1,1.18.67,3,1.77,1.77,5.65-6,5.72-20.41-4.6-21.31-1.6-.14-1.59,2.36,0,2.5Z" transform="translate(-21.71 -15.97)"/><path class="cls-5" d="M349,163.37a11.71,11.71,0,0,1,5.84,3.13c1.09,1.18,2.86-.59,1.76-1.77a14,14,0,0,0-6.93-3.78c-1.58-.31-2.25,2.1-.67,2.42Z" transform="translate(-21.71 -15.97)"/><path class="cls-5" d="M343.25,146.18l.14.07a1.28,1.28,0,0,0,1.71-.45,1.26,1.26,0,0,0-.45-1.71l-.14-.07a1.28,1.28,0,0,0-1.71.45,1.26,1.26,0,0,0,.45,1.71Z" transform="translate(-21.71 -15.97)"/><path class="cls-5" d="M343.16,144.17c-2.49,2.93-3.34,6.86-5.5,10.08s-4.41,6.78-3.57,10.85c.56,2.73,2.54,4.74,4.6,6.49C343,175.2,347.56,178.51,352,182c1.26,1,3-.78,1.77-1.76l-8.36-6.51c-2.21-1.72-5.4-3.52-7.06-5.83-3.47-4.82-.73-8.9,2-13,1.71-2.61,2.66-6.55,4.62-8.86,1-1.22-.73-3-1.77-1.77Z" transform="translate(-21.71 -15.97)"/><path class="cls-5" d="M351.22,181.66c10,4.66,21.41,4.16,31.4,8.79,1.45.68,2.72-1.48,1.26-2.16-10-4.64-21.42-4.14-31.4-8.79-1.45-.68-2.72,1.48-1.26,2.16Z" transform="translate(-21.71 -15.97)"/><path class="cls-5" d="M381.84,190A97.4,97.4,0,0,1,407,214.16c.93,1.29,3.1.05,2.16-1.26a100.58,100.58,0,0,0-26-25.11c-1.34-.9-2.6,1.27-1.26,2.16Z" transform="translate(-21.71 -15.97)"/><path class="cls-5" d="M337.5,154.82c-1.31-1.69-2.45-3.4-1.19-5.49s2.95-3.61,5.21-1.72c1.22,1,3-.73,1.77-1.76-3.19-2.68-6.08-1.88-8.48,1.29-2.57,3.41-1.5,6.32.93,9.45,1,1.27,2.74-.51,1.76-1.77Z" transform="translate(-21.71 -15.97)"/><path class="cls-5" d="M342.57,146.43c1.24-1.34,1.35-3.59,3-4.46,1.45-.76,5.74-2.48,6.92-1,1,1.25,2.76-.53,1.76-1.77-2-2.45-5.32-1-7.78-.19a8.53,8.53,0,0,0-3.48,1.74c-1.14,1.11-1.16,2.8-2.2,3.94s.67,3,1.76,1.76Z" transform="translate(-21.71 -15.97)"/><path class="cls-5" d="M350.32,156.57c1.86,2.89,5,6.69,8.47,7.76,3.07,1,7.66-.35,10.29-2,1.36-.85.11-3-1.26-2.16-2.21,1.39-6.44,2.65-9,1.45s-4.9-4-6.37-6.31c-.87-1.35-3-.1-2.16,1.26Z" transform="translate(-21.71 -15.97)"/><path class="cls-5" d="M355.08,166a4.21,4.21,0,0,0,4.27-1.75,1.26,1.26,0,0,0-.45-1.71,1.28,1.28,0,0,0-1.71.45,1.61,1.61,0,0,1-1.45.6,1.28,1.28,0,0,0-1.53.88,1.25,1.25,0,0,0,.87,1.53Z" transform="translate(-21.71 -15.97)"/><path class="cls-5" d="M353,138c-1.74,5.42,4.85,11.54,7.82,15.39,3.31,4.27,8.13,8,13.69,8.35,1.6.12,1.59-2.39,0-2.5-5.23-.37-9.43-4.32-12.4-8.28-2-2.69-7.89-8.57-6.7-12.3.49-1.54-1.92-2.19-2.41-.66Z" transform="translate(-21.71 -15.97)"/><path class="cls-5" d="M355.7,138.74c1.4-3.45,7.58-3.9,10.45-2.14,1.38.85,2.63-1.32,1.26-2.16-2.61-1.6-5.46-1.46-8.37-.84s-4.56,1.54-5.75,4.48c-.6,1.49,1.81,2.14,2.41.66Z" transform="translate(-21.71 -15.97)"/><path class="cls-5" d="M366.19,134.6c-.62,2.08-1.57,4.07-.93,6.19s2.36,4.61,3.52,6.5A21.65,21.65,0,0,0,379.37,156c1.49.61,2.14-1.8.67-2.41a19.11,19.11,0,0,1-9.43-8.11,33.26,33.26,0,0,1-2.61-4.93c-.71-2,0-3.41.6-5.3a1.25,1.25,0,0,0-2.41-.67Z" transform="translate(-21.71 -15.97)"/><path class="cls-5" d="M373.55,161.14c2.67,1.53,5-.68,6.41-2.78.9-1.34-1.27-2.59-2.16-1.26-.58.86-1.72,2.61-3,1.88a1.25,1.25,0,0,0-1.26,2.16Z" transform="translate(-21.71 -15.97)"/><path class="cls-5" d="M377.7,155.58a2,2,0,0,1,.21,1.75,1.29,1.29,0,0,0,.45,1.71,1.26,1.26,0,0,0,1.71-.44,4.6,4.6,0,0,0-.21-4.28,1.25,1.25,0,0,0-2.16,1.26Z" transform="translate(-21.71 -15.97)"/><path class="cls-5" d="M376.23,138a8.52,8.52,0,0,1,2.92,7.06c-.09,1.61,2.41,1.6,2.5,0a11,11,0,0,0-3.65-8.83c-1.2-1.07-3,.7-1.77,1.77Z" transform="translate(-21.71 -15.97)"/><path class="cls-5" d="M379.91,145.87c1.22,1,2.57,2,3.08,3.58a3.41,3.41,0,0,1-.16,2.91c-.44.74-1.83,2-2.78,1.08-1.15-1.13-2.92.64-1.77,1.77,2.15,2.13,5.81.58,7-1.92,1.69-3.7-.82-7-3.55-9.18-1.24-1-3,.75-1.77,1.76Z" transform="translate(-21.71 -15.97)"/><path class="cls-5" d="M368.73,136.2c1.13-2.94,4.92-2.82,7.65-2.94a11.79,11.79,0,0,1,8.09,2.26c1.29,1,2.53-1.2,1.26-2.16-3.38-2.56-7.43-2.91-11.53-2.4-3.9.47-6.4.72-7.88,4.57-.58,1.51,1.84,2.16,2.41.67Z" transform="translate(-21.71 -15.97)"/><path class="cls-5" d="M384.35,134.85a38.88,38.88,0,0,1,14.3,15.1c2.76,5.28,4,11,8.05,15.58,1.07,1.21,2.84-.57,1.77-1.77-4.77-5.38-5.93-13-10-18.92a42,42,0,0,0-12.89-12.15c-1.38-.85-2.63,1.31-1.26,2.16Z" transform="translate(-21.71 -15.97)"/><path class="cls-5" d="M405.62,164.52Q418,179,429.78,193.86c1,1.27,2.76-.51,1.77-1.76q-11.81-14.91-24.16-29.35c-1.05-1.22-2.81.55-1.77,1.77Z" transform="translate(-21.71 -15.97)"/><path class="cls-10" d="M261.93,344.82v.67a2.5,2.5,0,0,0,5,0v-.67a2.5,2.5,0,0,0-5,0Z" transform="translate(-21.71 -15.97)"/><path class="cls-10" d="M265.21,344.47l.34-.67a1.28,1.28,0,0,0-.45-1.71,1.27,1.27,0,0,0-1.71.45l-.34.67a1.28,1.28,0,0,0,.45,1.71,1.26,1.26,0,0,0,1.71-.45Z" transform="translate(-21.71 -15.97)"/><path class="cls-10" d="M264.43,343.41a1.25,1.25,0,0,0,0-2.5,1.25,1.25,0,0,0,0,2.5Z" transform="translate(-21.71 -15.97)"/><path class="cls-10" d="M262.85,341.82v1a1.25,1.25,0,0,0,2.5,0v-1a1.25,1.25,0,0,0-2.5,0Z" transform="translate(-21.71 -15.97)"/><path class="cls-10" d="M263,341.18l-.33.66a1.28,1.28,0,0,0,.44,1.71,1.25,1.25,0,0,0,1.71-.45l.34-.66a1.28,1.28,0,0,0-.45-1.71,1.25,1.25,0,0,0-1.71.45Z" transform="translate(-21.71 -15.97)"/><path class="cls-10" d="M263.18,341.82v.67a1.25,1.25,0,0,0,2.5,0v-.67a1.25,1.25,0,0,0-2.5,0Z" transform="translate(-21.71 -15.97)"/><path class="cls-4" d="M263.43,339.59a4.86,4.86,0,0,0,3.48-1.63,2.72,2.72,0,0,0,.74-1.77,2.56,2.56,0,0,0-.74-1.77,2.52,2.52,0,0,0-3.53,0c-.08.1-.18.19-.26.29s.45-.44.07-.08,0-.1.18-.06l-.22.06c-.2,0-.1,0,.28,0a2.56,2.56,0,0,0-2.5,2.5,2.53,2.53,0,0,0,2.5,2.5Z" transform="translate(-21.71 -15.97)"/><path class="cls-4" d="M265.1,338.32h1.33a2.5,2.5,0,0,0,0-5H265.1a2.5,2.5,0,0,0,0,5Z" transform="translate(-21.71 -15.97)"/><path class="cls-10" d="M263.27,345.82h.5a2.5,2.5,0,0,0,0-5h-.5a2.5,2.5,0,0,0,0,5Z" transform="translate(-21.71 -15.97)"/><path class="cls-10" d="M264,345.77l.11,0h-1.33l-1.45-1.92a2.48,2.48,0,0,0,.73,1.76,2.49,2.49,0,0,0,3.54,0,2.92,2.92,0,0,0,.73-1.76,2.78,2.78,0,0,0-.9-2.18,3,3,0,0,0-2.76-.7,2.52,2.52,0,0,0-1.75,3.08,2.57,2.57,0,0,0,3.08,1.74Z" transform="translate(-21.71 -15.97)"/><path class="cls-4" d="M261.44,334.74a11.37,11.37,0,0,0,8.32,1.77,2.52,2.52,0,0,0,1.74-3.08,2.56,2.56,0,0,0-3.07-1.74,6.3,6.3,0,0,1-4.47-1.27,2.5,2.5,0,0,0-2.52,4.32Z" transform="translate(-21.71 -15.97)"/><path class="cls-4" d="M261.54,334.26a29.18,29.18,0,0,0,9.89,4.33c3.13.73,4.47-4.09,1.33-4.82a25.17,25.17,0,0,1-8.69-3.82c-2.67-1.83-5.17,2.51-2.53,4.31Z" transform="translate(-21.71 -15.97)"/><path class="cls-4" d="M262.13,335.06a28.62,28.62,0,0,0,10.3,3.27,2.51,2.51,0,0,0,2.5-2.5,2.55,2.55,0,0,0-2.5-2.5,22,22,0,0,1-7.77-2.59c-2.83-1.55-5.35,2.76-2.53,4.32Z" transform="translate(-21.71 -15.97)"/><path class="cls-4" d="M274.77,333.52a90.62,90.62,0,0,1-9.56-5.62c-2.68-1.81-5.18,2.52-2.53,4.31a87.44,87.44,0,0,0,9.57,5.62c2.86,1.46,5.39-2.86,2.52-4.31Z" transform="translate(-21.71 -15.97)"/><path class="cls-9" d="M285.18,467.87c13.74,9.31,18.48,26.25,21.35,41.71" transform="translate(-21.71 -15.97)"/><circle class="cls-11" cx="39.92" cy="287.77" r="39.92"/><path class="cls-1" d="M35.43,277.54H87.84V330H35.43Z" transform="translate(-21.71 -15.97)"/><path class="cls-12" d="M59.45,281.91v43.67a22,22,0,0,1,0-43.67Zm4.43,0v19.63H83.47A21.92,21.92,0,0,0,63.88,281.91Zm0,24v19.63A21.9,21.9,0,0,0,83.47,306Z" transform="translate(-21.71 -15.97)"/><circle class="cls-11" cx="106.1" cy="177.67" r="61.41"/><path class="cls-1" d="M78.85,160.13h67v67h-67Z" transform="translate(-21.71 -15.97)"/><path class="cls-12" d="M130.51,165.72h-44a4.9,4.9,0,0,0-4.89,4.88v29.32a4.9,4.9,0,0,0,4.89,4.89h17.11v4.89H98.75v4.88H118.3V209.7h-4.89v-4.89h17.1a4.9,4.9,0,0,0,4.89-4.89V170.6A4.9,4.9,0,0,0,130.51,165.72Zm0,34.2h-44V170.6h44Z" transform="translate(-21.71 -15.97)"/><path class="cls-1" d="M143.28,188.06h33.51v33.5H143.28Z" transform="translate(-21.71 -15.97)"/><path class="cls-12" d="M167,189.47h-14a2.78,2.78,0,0,0-2.77,2.79v25.13a2.79,2.79,0,0,0,2.77,2.79h14a2.81,2.81,0,0,0,2.8-2.79V192.25A2.79,2.79,0,0,0,167,189.47Zm0,25.11h-14V195h14Z" transform="translate(-21.71 -15.97)"/><circle class="cls-11" cx="205.59" cy="88.17" r="43.34"/><path class="cls-1" d="M200.91,77.75H253.7v52.78H200.91Z" transform="translate(-21.71 -15.97)"/><path class="cls-12" d="M244.9,86.55H209.71a4.39,4.39,0,0,0-4.38,4.39l0,26.4a4.41,4.41,0,0,0,4.4,4.4H244.9a4.41,4.41,0,0,0,4.4-4.4V90.94A4.41,4.41,0,0,0,244.9,86.55Zm0,30.79H209.71v-22l17.59,11,17.6-11Zm-17.6-15.4-17.59-11H244.9Z" transform="translate(-21.71 -15.97)"/><circle class="cls-11" cx="141.73" cy="364.56" r="39.92"/><path class="cls-1" d="M137.33,354.42h52.22v52.23H137.33Z" transform="translate(-21.71 -15.97)"/><path class="cls-12" d="M163.44,358.78A15.22,15.22,0,0,0,148.21,374c0,11.42,15.23,28.29,15.23,28.29s15.23-16.87,15.23-28.29A15.22,15.22,0,0,0,163.44,358.78Zm0,20.67a5.44,5.44,0,1,1,5.44-5.44A5.45,5.45,0,0,1,163.44,379.45Z" transform="translate(-21.71 -15.97)"/><circle class="cls-11" cx="56.27" cy="43.6" r="43.6"/><rect class="cls-12" x="29.67" y="21.11" width="53.19" height="36.22" rx="5.86"/><circle class="cls-4" cx="45.42" cy="39.06" r="2.55"/><circle class="cls-4" cx="56.27" cy="39.06" r="2.55"/><circle class="cls-4" cx="67.11" cy="39.06" r="2.55"/><polygon class="cls-12" points="56.98 66.09 64.56 52.96 49.39 52.96 56.98 66.09"/><path class="cls-7" d="M323.09,355.18c18.14-11.28,24-33.87,20.47-51.86s-25.83-51.16-57-47.63S237,274.74,254.65,324.84c0,0-7.41-3.88-10.58.35s2.12,12.7,7.05,17.29,12,7.76,14.82-.71C265.94,341.77,291.34,374.93,323.09,355.18Z" transform="translate(-21.71 -15.97)"/><rect class="cls-13" x="240.49" y="293.01" width="8.47" height="8.47" rx="4"/><rect class="cls-13" x="281.2" y="273.62" width="8.47" height="8.47" rx="4"/><circle class="cls-13" cx="274.41" cy="310.68" r="1.95"/><path class="cls-13" d="M296.52,283.67a9.51,9.51,0,0,1,5.77-3.93c3.13-.77,1.8-5.59-1.33-4.82a14.68,14.68,0,0,0-8.76,6.23c-1.79,2.68,2.54,5.19,4.32,2.52Z" transform="translate(-21.71 -15.97)"/><path class="cls-13" d="M258.5,301.64a12.66,12.66,0,0,1,6.8-1.67c3.21.09,3.21-4.91,0-5a17.59,17.59,0,0,0-9.32,2.35c-2.8,1.59-.28,5.91,2.52,4.32Z" transform="translate(-21.71 -15.97)"/><path class="cls-13" d="M297.69,340.39c6.81-1.75,12.45-4.47,16.46-10.46,1.34-2-1.9-3.9-3.24-1.9-3.45,5.16-8.41,7.25-14.22,8.75-2.34.6-1.35,4.22,1,3.61Z" transform="translate(-21.71 -15.97)"/><path class="cls-5" d="M252.71,262.59s60.34-4.46,93.17,37.66-17.4-59-17.4-59l-74.69,19Z" transform="translate(-21.71 -15.97)"/></g></g></g></svg>