<svg xmlns="http://www.w3.org/2000/svg" viewBox="0 0 542.47 510.26"><defs><style>.cls-1{fill:#efe8df;}.cls-2,.cls-4{fill:none;}.cls-10,.cls-2,.cls-3{stroke:#201613;}.cls-10,.cls-2,.cls-3,.cls-4{stroke-miterlimit:10;stroke-width:6px;}.cls-3{fill:#d6c6b6;}.cls-4{stroke:#231815;}.cls-5,.cls-8{fill:#3f2f20;}.cls-6{fill:#fff;}.cls-7{fill:#d8c8b7;}.cls-8{font-size:71.15px;font-family:GenJyuuGothicX-P-Bold, Gen Jyuu Gothic XP;font-weight:700;}.cls-9{fill:#231815;}.cls-10{fill:#9b8676;}</style></defs><title>資產 37</title><g id="圖層_2" data-name="圖層 2"><g id="線搞7"><rect class="cls-1" width="542.47" height="510.26"/><path class="cls-2" d="M340.75,462.92H181c-6.66,0-12.06-5.09-12.06-11.38V363c0-6.29,24-25.27,42.76-52.72l49.16-42.63,50,43.35c17.62,25.65,41.89,45.71,41.89,52v88.5C352.82,457.83,347.42,462.92,340.75,462.92Z"/><path class="cls-3" d="M437.9,119.12a10.81,10.81,0,0,0-10.77-10.78h-71.5a10.81,10.81,0,0,0-10.78,10.78V131.6h93Z"/><path class="cls-2" d="M344.85,131.6v46.7a10.8,10.8,0,0,0,10.78,10.77h71.5A10.8,10.8,0,0,0,437.9,178.3V131.6Z"/><line class="cls-4" x1="363.49" y1="96.58" x2="363.49" y2="118.48"/><line class="cls-4" x1="419.26" y1="97.39" x2="419.26" y2="119.29"/><circle class="cls-5" cx="367.53" cy="148.99" r="3.25"/><circle class="cls-5" cx="391.38" cy="148.99" r="3.25"/><circle class="cls-5" cx="415.22" cy="148.99" r="3.25"/><circle class="cls-5" cx="367.53" cy="165.76" r="3.25"/><circle class="cls-5" cx="391.38" cy="165.76" r="3.25"/><circle class="cls-5" cx="415.22" cy="165.76" r="3.25"/><circle class="cls-6" cx="113.84" cy="147.81" r="51.23"/><path class="cls-7" d="M113.84,96.58a50.86,50.86,0,0,0-9.55.91,51.22,51.22,0,0,1,0,100.65,51.23,51.23,0,1,0,9.55-101.56Z"/><text class="cls-8" transform="translate(90.46 174.72)">＄</text><circle class="cls-2" cx="113.84" cy="147.81" r="51.23"/><circle class="cls-2" cx="408.39" cy="334.89" r="11.42"/><circle class="cls-5" cx="77.88" cy="235.66" r="6.48"/><circle class="cls-9" cx="196.15" cy="120.96" r="3.24"/><path class="cls-5" d="M464.59,219.33c0,2.13,5,11.31,5.77,10.56-.75.75,8.43,5.77,10.57,5.77-2.14,0-11.32,5-10.57,5.78-.75-.76-5.77,8.42-5.77,10.56,0-2.14-5-11.32-5.78-10.56.76-.76-8.42-5.78-10.56-5.78,2.14,0,11.32-5,10.56-5.77C459.57,230.64,464.59,221.46,464.59,219.33Z"/><path class="cls-5" d="M98.57,332.88c0,2.14,5,11.32,5.78,10.56-.76.76,8.42,5.78,10.56,5.78-2.14,0-11.32,5-10.56,5.78-.76-.76-5.78,8.42-5.78,10.56,0-2.14-5-11.32-5.78-10.56.76-.76-8.42-5.78-10.56-5.78,2.14,0,11.32-5,10.56-5.78C93.55,344.2,98.57,335,98.57,332.88Z"/><path class="cls-9" d="M420.38,242.76c0,1.07,2.51,5.66,2.88,5.28-.37.38,4.22,2.89,5.28,2.89-1.06,0-5.65,2.51-5.28,2.89-.37-.38-2.88,4.21-2.88,5.28,0-1.07-2.51-5.66-2.89-5.28.38-.38-4.21-2.89-5.28-2.89,1.07,0,5.66-2.51,5.28-2.89C417.87,248.42,420.38,243.83,420.38,242.76Z"/><path class="cls-5" d="M312.1,71.77c0,1.07,2.51,5.66,2.89,5.28-.38.38,4.21,2.89,5.28,2.89-1.07,0-5.66,2.51-5.28,2.88-.38-.37-2.89,4.22-2.89,5.28,0-1.06-2.51-5.65-2.89-5.28.38-.37-4.21-2.88-5.28-2.88,1.07,0,5.66-2.51,5.28-2.89C309.59,77.43,312.1,72.84,312.1,71.77Z"/><path class="cls-5" d="M83.3,311.42c0,1.07,2.51,5.66,2.89,5.28-.38.38,4.21,2.89,5.28,2.89-1.07,0-5.66,2.51-5.28,2.88-.38-.37-2.89,4.22-2.89,5.28,0-1.06-2.51-5.65-2.89-5.28.38-.37-4.21-2.88-5.28-2.88,1.07,0,5.66-2.51,5.28-2.89C80.79,317.08,83.3,312.49,83.3,311.42Z"/><rect class="cls-10" x="200.54" y="385.68" width="44.42" height="77.24" rx="2.83"/><polygon class="cls-7" points="240.65 292.46 349.51 386.7 349.51 344.37 262.52 266.61 231.07 296.49 240.65 292.46"/><polygon class="cls-10" points="374.1 359.74 278.77 275.05 279.49 274.41 261.61 258.53 260.9 259.17 260.18 258.53 242.31 274.41 243.02 275.05 147.69 359.74 165.57 375.62 260.9 290.93 356.23 375.62 374.1 359.74"/><rect class="cls-10" x="271.27" y="385.68" width="55.53" height="28.39" rx="2.83"/></g></g></svg>