<svg xmlns="http://www.w3.org/2000/svg" viewBox="0 0 542.47 510.26"><defs><style>.cls-1{fill:#efe8df;}.cls-2,.cls-6,.cls-9{fill:none;}.cls-3{fill:#9b8676;}.cls-3,.cls-4,.cls-6,.cls-9{stroke:#201613;}.cls-3,.cls-4,.cls-6,.cls-8{stroke-miterlimit:10;}.cls-3,.cls-4,.cls-6,.cls-8,.cls-9{stroke-width:6px;}.cls-4{fill:#d6c6b6;}.cls-5,.cls-8{fill:#fff;}.cls-7{fill:#3f2f20;}.cls-8{stroke:#231815;}.cls-8,.cls-9{stroke-linecap:round;}.cls-9{stroke-linejoin:round;}</style></defs><title>資產 36</title><g id="圖層_2" data-name="圖層 2"><g id="線搞6"><rect class="cls-1" width="542.47" height="510.26"/><rect class="cls-2" width="542.47" height="510.26"/><rect class="cls-3" x="160.88" y="102.58" width="254.16" height="178.56" rx="11.34"/><rect class="cls-4" x="132.75" y="130.4" width="254.16" height="178.56" rx="11.34"/><path class="cls-5" d="M171.06,296.24s-8.18-7.18-14.3-12.22-12.24,5.4-12.24,5.4l-4.84,5.14c-.62-.54-4.11-3.53-10-8.41-6.48-5.4-14,5-14,5l-57.6,63.72c-10.08,11.16,2.16,22.32,2.16,22.32l-13.72,14.4c25.09,34.54,53.16,45.66,53.16,45.66l14.77-14.14s-.7-1.74,6.69,4.18,16.73-2.26,16.73-2.26l64-40.07s12.92-8.12,4.58-17.16c-5.91-6.4-40.67,3.24-40.67,3.24s56.85-60.13,64.58-68.49,1.9-11.76,1.9-11.76a34.7,34.7,0,0,0-7.87-8.23c-5.62-4.47-11.95,2.72-11.95,2.72l-19.58,17.61a118.21,118.21,0,0,1-10.54-8.47c-5-4.68-11.16,2.74-11.16,2.74"/><path class="cls-6" d="M46.51,391.63l13.72-14.4S48,366.07,58.07,354.91l57.6-63.72s7.56-10.44,14-5,10.08,8.5,10.08,8.5"/><path class="cls-6" d="M169.36,294.82s-6.48-5.76-12.6-10.8-12.24,5.4-12.24,5.4l-29.16,31"/><path class="cls-6" d="M137,331.9l34.2-34.7s6.12-7.42,11.16-2.74a125.12,125.12,0,0,0,11.8,9.36"/><path class="cls-6" d="M155.11,343.86l57.33-58.54s6.33-7.19,11.95-2.72a34.7,34.7,0,0,1,7.87,8.23s5.84,3.4-1.9,11.76-64.58,68.49-64.58,68.49,34.76-9.64,40.67-3.24c8.34,9-4.58,17.16-4.58,17.16l-64,40.07s-9.35,8.19-16.73,2.26-6.69-4.18-6.69-4.18L99.67,437.29"/><path class="cls-7" d="M462.09,222.16c0,2.07,4.87,11,5.61,10.24-.74.73,8.16,5.6,10.24,5.6-2.08,0-11,4.87-10.24,5.6-.74-.73-5.61,8.17-5.61,10.24,0-2.07-4.86-11-5.6-10.24.74-.73-8.17-5.6-10.24-5.6,2.07,0,11-4.87,10.24-5.6C457.23,233.13,462.09,224.23,462.09,222.16Z"/><path class="cls-7" d="M91.08,71.93c0,2.07,4.87,11,5.6,10.24-.73.73,8.17,5.6,10.25,5.6-2.08,0-11,4.87-10.25,5.6-.73-.73-5.6,8.17-5.6,10.24,0-2.07-4.86-11-5.6-10.24.74-.73-8.17-5.6-10.24-5.6,2.07,0,11-4.87,10.24-5.6C86.22,82.9,91.08,74,91.08,71.93Z"/><path class="cls-7" d="M497.73,182.06c0,1.35,3.17,7.15,3.65,6.67-.48.48,5.32,3.65,6.67,3.65-1.35,0-7.15,3.17-6.67,3.65-.48-.48-3.65,5.32-3.65,6.67,0-1.35-3.17-7.15-3.65-6.67.48-.48-5.32-3.65-6.67-3.65,1.35,0,7.15-3.17,6.67-3.65C494.56,189.21,497.73,183.41,497.73,182.06Z"/><circle class="cls-6" cx="68.94" cy="160.48" r="11.07"/><circle class="cls-7" cx="84.56" cy="191.86" r="6.28"/><circle class="cls-7" cx="488.08" cy="308.96" r="6.28"/><path class="cls-8" d="M245.63,255.92H212.72s-28.37-6.7-22.7-38,33.73-25.51,33.73-25.51,8.58-35.65,42.17-31.58,38.33,39,36.39,47.47c0,0,29.55-6.39,32.76,23.83-3.21,17-9.17,20.42-14.28,23.82H276.11"/><line class="cls-9" x1="259.83" y1="204.56" x2="259.83" y2="278.24"/><line class="cls-9" x1="259.83" y1="204.56" x2="237.9" y2="226.43"/><line class="cls-9" x1="259.83" y1="204.56" x2="281.76" y2="226.43"/></g></g></svg>