<svg xmlns="http://www.w3.org/2000/svg" viewBox="0 0 541.28 510.26"><defs><style>.cls-1{fill:#efe8df;}.cls-2{fill:none;}.cls-2,.cls-4,.cls-6{stroke:#201613;}.cls-2,.cls-4,.cls-5,.cls-6{stroke-miterlimit:10;stroke-width:6px;}.cls-3{fill:#3f2f20;}.cls-4{fill:#d6c6b6;}.cls-5{fill:#fff;stroke:#231815;stroke-linecap:round;}.cls-6{fill:#9b8676;}</style></defs><title>資產 35</title><g id="圖層_2" data-name="圖層 2"><g id="線搞5"><rect class="cls-1" width="541.28" height="510.26"/><rect class="cls-2" x="147.73" y="104.19" width="167.04" height="282.24" rx="27.36"/><line class="cls-2" x1="206.77" y1="117.72" x2="255.73" y2="117.72"/><rect class="cls-3" x="202.91" y="360.76" width="56.69" height="13.29" rx="6.64"/><rect class="cls-4" x="167.3" y="130.11" width="127.9" height="217.44"/><path class="cls-5" d="M371.94,128.41a87.76,87.76,0,1,0,29.27,40.11"/><circle class="cls-6" cx="318.37" cy="180.26" r="32.4"/><path class="cls-6" d="M318.37,286.15A87.58,87.58,0,0,0,371.94,268a56.18,56.18,0,0,0-107.14,0A87.58,87.58,0,0,0,318.37,286.15Z"/><circle class="cls-3" cx="388.23" cy="394.99" r="11.07"/><circle class="cls-3" cx="405.59" cy="329.36" r="6.28"/><circle class="cls-3" cx="107.5" cy="245.31" r="6.28"/><path class="cls-3" d="M86.41,109.18c0,2.07,4.87,11,5.6,10.24-.73.73,8.17,5.6,10.25,5.6-2.08,0-11,4.87-10.25,5.6-.73-.73-5.6,8.17-5.6,10.25,0-2.08-4.87-11-5.6-10.25.73-.73-8.17-5.6-10.24-5.6,2.07,0,11-4.87,10.24-5.6C81.54,120.15,86.41,111.25,86.41,109.18Z"/><path class="cls-3" d="M453.69,270.31c0,2.07,4.87,11,5.6,10.24-.73.73,8.17,5.6,10.24,5.6-2.07,0-11,4.87-10.24,5.6-.73-.73-5.6,8.17-5.6,10.24,0-2.07-4.87-11-5.6-10.24.73-.73-8.17-5.6-10.24-5.6,2.07,0,11-4.87,10.24-5.6C448.82,281.28,453.69,272.38,453.69,270.31Z"/><path class="cls-3" d="M113.79,147.78c0,1.4,3.29,7.43,3.79,6.93-.5.5,5.53,3.79,6.93,3.79-1.4,0-7.43,3.3-6.93,3.79-.5-.49-3.79,5.53-3.79,6.94,0-1.41-3.3-7.43-3.79-6.94.49-.49-5.53-3.79-6.93-3.79,1.4,0,7.42-3.29,6.93-3.79C110.49,155.21,113.79,149.18,113.79,147.78Z"/><line class="cls-2" x1="370.77" y1="146.71" x2="407.39" y2="146.71"/><line class="cls-2" x1="389.08" y1="128.41" x2="389.08" y2="165.02"/></g></g></svg>