<svg xmlns="http://www.w3.org/2000/svg" viewBox="0 0 542.47 510.26"><defs><style>.cls-1{fill:#efe8df;}.cls-2,.cls-5,.cls-6{fill:none;}.cls-3,.cls-9{fill:#fff;}.cls-4{fill:#d8c8b7;}.cls-5,.cls-9{stroke:#231815;}.cls-5,.cls-6,.cls-7,.cls-8,.cls-9{stroke-miterlimit:10;}.cls-5{stroke-width:8px;}.cls-6{stroke:#3f2f20;stroke-width:12px;}.cls-7{fill:#d6c6b6;}.cls-7,.cls-8{stroke:#201613;stroke-width:6px;}.cls-8{fill:#9b8676;}.cls-9{stroke-width:5px;}.cls-10{fill:#3f2f20;}</style></defs><title>資產 38</title><g id="圖層_2" data-name="圖層 2"><g id="圖層_17" data-name="圖層 17"><rect class="cls-1" width="542.47" height="510.26"/><rect class="cls-2" width="542.47" height="510.26"/><circle class="cls-3" cx="280.49" cy="125.52" r="70.37"/><path class="cls-4" d="M280.49,59.12c-1.61,0-3.2.07-4.79.18a70.36,70.36,0,0,1-19.05,136.41A70.38,70.38,0,1,0,280.49,59.12Z"/><circle class="cls-5" cx="280.49" cy="125.52" r="70.37"/><polyline class="cls-6" points="230.46 124.56 269.05 163.15 334.09 98.1"/><polygon class="cls-7" points="127.07 265.09 136.25 262.52 172.22 323.46 186.91 323.46 219.23 262.52 231.33 262.52 203.06 341.82 202.7 385.51 154.24 385.51 154.24 339.25 127.07 265.09"/><polygon class="cls-8" points="155.18 385.51 152.98 464.44 166.19 464.44 174.52 399.82 182.19 399.82 188.43 464.66 200.7 464.66 201.44 385.51 155.18 385.51"/><circle class="cls-9" cx="179.2" cy="308.54" r="14.68"/><polygon class="cls-7" points="237.32 310.33 244.93 308.54 274.72 351.18 286.88 351.18 313.64 308.54 323.66 308.54 300.25 364.02 299.95 394.59 259.82 394.59 259.82 362.22 237.32 310.33"/><polygon class="cls-8" points="260.6 394.59 258.78 449.82 269.72 449.82 276.61 404.61 282.97 404.61 288.14 449.98 298.3 449.98 298.91 394.59 260.6 394.59"/><ellipse class="cls-9" cx="280.49" cy="340.73" rx="12.16" ry="10.28"/><polygon class="cls-7" points="329.65 265.09 338.83 262.52 374.81 323.46 389.5 323.46 421.82 262.52 433.92 262.52 405.65 341.82 405.28 385.51 356.82 385.51 356.82 339.25 329.65 265.09"/><polygon class="cls-8" points="357.77 385.51 355.56 464.44 368.78 464.44 377.1 399.82 384.78 399.82 391.02 464.66 403.29 464.66 404.02 385.51 357.77 385.51"/><circle class="cls-9" cx="381.79" cy="308.54" r="14.68"/><circle class="cls-10" cx="489.37" cy="55.48" r="5.71"/><circle class="cls-10" cx="95.25" cy="67.82" r="6.48"/><path class="cls-10" d="M429.32,102.13c0,2.14,5,11.32,5.78,10.56-.76.76,8.42,5.78,10.56,5.78-2.14,0-11.32,5-10.56,5.78-.76-.76-5.78,8.42-5.78,10.56,0-2.14-5-11.32-5.77-10.56.75-.76-8.43-5.78-10.56-5.78,2.13,0,11.31-5,10.56-5.78C424.3,113.45,429.32,104.27,429.32,102.13Z"/><path class="cls-10" d="M59.54,173.36c0,2.14,5,11.32,5.77,10.56-.75.76,8.43,5.78,10.56,5.78-2.13,0-11.31,5-10.56,5.77-.75-.75-5.77,8.43-5.77,10.56,0-2.13-5-11.31-5.78-10.56.76-.75-8.42-5.77-10.56-5.77,2.14,0,11.32-5,10.56-5.78C54.52,184.68,59.54,175.5,59.54,173.36Z"/><path class="cls-10" d="M466.47,181.53c0,1.07,2.51,5.66,2.88,5.28-.37.38,4.22,2.89,5.28,2.89-1.06,0-5.65,2.51-5.28,2.89-.37-.38-2.88,4.21-2.88,5.28,0-1.07-2.51-5.66-2.89-5.28.38-.38-4.21-2.89-5.28-2.89,1.07,0,5.66-2.51,5.28-2.89C464,187.19,466.47,182.6,466.47,181.53Z"/><path class="cls-10" d="M143.86,135.19c0,1.07,2.51,5.66,2.88,5.28-.37.38,4.22,2.89,5.28,2.89-1.06,0-5.65,2.51-5.28,2.89-.37-.38-2.88,4.21-2.88,5.28,0-1.07-2.51-5.66-2.89-5.28.38-.38-4.21-2.89-5.28-2.89,1.07,0,5.66-2.51,5.28-2.89C141.35,140.85,143.86,136.26,143.86,135.19Z"/></g></g></svg>